<svg width="64" height="64" viewBox="0 0 64 64" fill="none" xmlns="http://www.w3.org/2000/svg">
<circle opacity="0.15" cx="32" cy="32" r="32" fill="#FFC02F"/>
<path d="M32 24V42.6667" stroke="#3B4960" stroke-width="2" stroke-linecap="round"/>
<path d="M23.9734 20.3806C28.4283 21.2288 31.0835 23.0031 31.9993 24.0217C32.9152 23.0031 35.5703 21.2288 40.0252 20.3806C42.2821 19.9509 43.4105 19.736 44.3716 20.5595C45.3327 21.383 45.3327 22.7203 45.3327 25.3948V35.0067C45.3327 37.4521 45.3327 38.6748 44.7159 39.4383C44.0991 40.2016 42.7412 40.4601 40.0252 40.9773C37.6043 41.4383 35.7148 42.1727 34.3471 42.9108C33.0015 43.6369 32.3287 44 31.9993 44C31.67 44 30.9972 43.6369 29.6516 42.9108C28.2839 42.1727 26.3945 41.4383 23.9734 40.9773C21.2575 40.4601 19.8996 40.2016 19.2828 39.4383C18.666 38.6748 18.666 37.4521 18.666 35.0067V25.3948C18.666 22.7203 18.666 21.383 19.6271 20.5595C20.5881 19.736 21.7165 19.9509 23.9734 20.3806Z" stroke="#3B4960" stroke-width="2" stroke-linecap="round" stroke-linejoin="round"/>
<path d="M32 38.1333V41.3333V38.1333ZM32.0144 44.5333H32H32.0144ZM40 41.3333C40 45.7516 36.4182 49.3333 32 49.3333C27.5818 49.3333 24 45.7516 24 41.3333C24 36.9151 27.5818 33.3333 32 33.3333C36.4182 33.3333 40 36.9151 40 41.3333Z" fill="#FFF6E0"/>
<path d="M32 38.1333V41.3333M32.0144 44.5333H32M40 41.3333C40 45.7516 36.4182 49.3333 32 49.3333C27.5818 49.3333 24 45.7516 24 41.3333C24 36.9151 27.5818 33.3333 32 33.3333C36.4182 33.3333 40 36.9151 40 41.3333Z" stroke="#FCA800" stroke-width="2" stroke-linecap="round"/>
</svg>
