<svg xmlns="http://www.w3.org/2000/svg" width="25" height="24" viewBox="0 0 25 24" fill="none">
<path d="M8.50981 21.9984C7.36057 21.9734 6.58609 21.9984 5.58676 21.7734C4.53746 21.4984 3.88789 20.8484 3.66305 19.5484C3.43819 18.6984 3.51048 14.9222 3.51315 11.3234C3.51521 8.53063 3.53373 5.99778 3.76298 5.47344C4.08777 4.34844 4.83727 3.54844 7.16072 3.52344M17.0291 3.52344C17.8286 3.59844 19.9183 3.52344 20.3269 5.82344C20.549 7.07344 20.5018 8.84844 20.5018 10.9734" fill="#0483F7"/>
<path d="M8.50981 21.9984C7.36057 21.9734 6.58609 21.9984 5.58676 21.7734C4.53746 21.4984 3.88789 20.8484 3.66305 19.5484C3.43819 18.6984 3.51048 14.9222 3.51315 11.3234C3.51521 8.53063 3.53373 5.99778 3.76298 5.47344C4.08777 4.34844 4.83727 3.54844 7.16072 3.52344H17.0291C17.8286 3.59844 19.9183 3.52344 20.3269 5.82344C20.549 7.07344 20.5018 8.84844 20.5018 10.9734L20.5 14.5L15 22L8.50981 21.9984Z" fill="#0483F7"/>
<path d="M8.50981 21.9984C7.36057 21.9734 6.58609 21.9984 5.58676 21.7734C4.53746 21.4984 3.88789 20.8484 3.66305 19.5484C3.43819 18.6984 3.51048 14.9222 3.51315 11.3234C3.51521 8.53063 3.53373 5.99778 3.76298 5.47344C4.08777 4.34844 4.83727 3.54844 7.16072 3.52344M17.0291 3.52344C17.8286 3.59844 19.9183 3.52344 20.3269 5.82344C20.549 7.07344 20.5018 8.84844 20.5018 10.9734" stroke="#0483F7" stroke-width="1.4" stroke-linecap="round"/>
<path d="M8.50981 21.9984C7.36057 21.9734 6.58609 21.9984 5.58676 21.7734C4.53746 21.4984 3.88789 20.8484 3.66305 19.5484C3.43819 18.6984 3.51048 14.9222 3.51315 11.3234C3.51521 8.53063 3.53373 5.99778 3.76298 5.47344C4.08777 4.34844 4.83727 3.54844 7.16072 3.52344H17.0291C17.8286 3.59844 19.9183 3.52344 20.3269 5.82344C20.549 7.07344 20.5018 8.84844 20.5018 10.9734L20.5 14.5L15 22L8.50981 21.9984Z" stroke="#0483F7" stroke-width="1.4" stroke-linecap="round"/>
<path d="M7.51367 16H11.5137M7.51367 11H15.5137" stroke="white" stroke-width="1.3" stroke-linecap="round"/>
<path d="M11.0137 22H12.0137" stroke="#0483F7" stroke-width="1.4" stroke-linecap="round"/>
<path d="M9.18478 5.5C10.2341 5.525 13.6068 5.5 14.7561 5.5C15.9053 5.5 16.5126 4.55409 16.5049 3.675C16.497 2.77925 15.7054 2.08017 14.931 2C13.9816 2 9.95926 2 9.15979 2C8.23541 2.05 7.61083 2.8 7.51089 3.55C7.41096 4.575 8.16046 5.45 9.18478 5.5Z" fill="#0483F7" stroke="white" stroke-linecap="round"/>
<path d="M19.278 14.3742C17.9039 15.7742 15.2557 18.2742 15.2557 18.4492C15.0421 18.746 14.8559 19.3492 14.731 20.1992C14.5741 20.9871 14.3862 21.6742 14.6061 21.8742C14.826 22.0742 15.6539 21.9056 16.5298 21.7242C17.2294 21.6492 17.8789 21.3992 18.2037 21.1492C18.6784 20.729 21.9013 17.4742 22.276 17.0492C22.5508 16.6742 22.5758 15.9742 22.336 15.5492C22.2011 15.2492 21.3516 14.4492 21.0768 14.2242C20.5771 13.9242 19.8776 13.8742 19.278 14.3742Z" fill="white" stroke="white" stroke-width="3.4" stroke-linecap="round"/>
<path d="M19.278 14.3762C17.9039 15.7762 15.2557 18.2762 15.2557 18.4512C15.0421 18.748 14.8559 19.3512 14.731 20.2012C14.5741 20.9891 14.3862 21.6762 14.6061 21.8762C14.826 22.0762 15.6539 21.9076 16.5298 21.7262C17.2294 21.6512 17.8789 21.4012 18.2037 21.1512C18.6784 20.731 21.9013 17.4762 22.276 17.0512C22.5508 16.6762 22.5758 15.9762 22.336 15.5512C22.2011 15.2512 21.3516 14.4512 21.0768 14.2262C20.5771 13.9262 19.8776 13.8762 19.278 14.3762Z" fill="white" stroke="#0483F7" stroke-width="1.4" stroke-linecap="round"/>
</svg>