<svg 
  xmlns="http://www.w3.org/2000/svg" 
  width="10" 
  height="10" 
  viewBox="0 0 10 10" 
  fill="none"
>
  <path 
    d="M3.895 6.10641C3.74986 5.96131 3.63474 5.78904 3.55619 5.59944C3.47764 5.40985 3.43721 5.20663 3.43721 5.00141C3.43721 4.79618 3.47764 4.59297 3.55619 4.40337C3.63474 4.21377 3.74986 4.0415 3.895 3.89641M6.105 3.89641C6.25014 4.0415 6.36526 4.21377 6.44381 4.40337C6.52236 4.59297 6.56279 4.79618 6.56279 5.00141C6.56279 5.20663 6.52236 5.40985 6.44381 5.59944C6.36526 5.78904 6.25014 5.96131 6.105 6.10641M3.01125 6.99016C2.75008 6.72899 2.54291 6.41894 2.40157 6.07771C2.26022 5.73648 2.18748 5.37075 2.18748 5.00141C2.18748 4.63206 2.26022 4.26633 2.40157 3.9251C2.54291 3.58387 2.75008 3.27382 3.01125 3.01266M6.98875 3.01266C7.24992 3.27382 7.45709 3.58387 7.59843 3.9251C7.73978 4.26633 7.81252 4.63206 7.81252 5.00141C7.81252 5.37075 7.73978 5.73648 7.59843 6.07771C7.45709 6.41894 7.24992 6.72899 6.98875 6.99016M2.1275 7.87391C0.540833 6.28766 0.540833 3.71557 2.1275 2.12891M7.8725 2.12891C9.45917 3.71516 9.45917 6.28724 7.8725 7.87391M5 5.00141H5.00333V5.00474H5V5.00141ZM5.15625 5.00141C5.15625 5.04285 5.13979 5.08259 5.11049 5.11189C5.08118 5.14119 5.04144 5.15766 5 5.15766C4.95856 5.15766 4.91882 5.14119 4.88951 5.11189C4.86021 5.08259 4.84375 5.04285 4.84375 5.00141C4.84375 4.95997 4.86021 4.92022 4.88951 4.89092C4.91882 4.86162 4.95856 4.84516 5 4.84516C5.04144 4.84516 5.08118 4.86162 5.11049 4.89092C5.13979 4.92022 5.15625 4.95997 5.15625 5.00141Z" 
    stroke="#E9393C" 
    stroke-width="0.625" 
    stroke-linecap="round" 
    stroke-linejoin="round"
  />
</svg>