<svg width="290" height="290" viewBox="0 0 290 290" fill="none" xmlns="http://www.w3.org/2000/svg">
<path d="M163.011 139.38L170.427 197.477C163.818 195.977 157.324 194.004 150.996 191.575L150.546 205.728L122.91 234.761C125.188 233.953 129.176 235.618 135.101 240.82C141.027 246.023 142.96 251.929 142.208 253.449C142.208 253.449 160.313 236.92 170.653 225.214C180.994 213.507 181.343 196.421 181.059 188.646C180.782 181.066 175.136 143.508 174.855 141.627C172.23 141.159 167.969 140.373 163.011 139.38Z" fill="#CDE6FD"/>
<path d="M116.017 176.885L110.6 190.328L73.8242 206.695C76.2351 206.073 81.1822 212.033 83.293 218.211C85.4037 224.389 86.6113 229.42 84.5915 231.258C84.5915 231.258 109.711 221.821 114.573 219.571C119.435 217.322 130.713 212.146 137.552 201.133C140.035 197.242 142.222 193.169 144.093 188.95C133.43 184.758 122.875 180.046 116.017 176.885Z" fill="#CDE6FD"/>
<path d="M260.956 75.8201C259.42 78.2728 256.357 80.6043 250.457 76.807C243.054 72.0459 240.232 77.4778 235.429 83.8274C230.626 90.1769 224.715 87.505 221.379 83.2056C220.104 81.3544 218.171 80.0599 215.973 79.5866C213.776 79.1133 211.481 79.497 209.558 80.6591L201.008 118.712C202.068 124.203 233.892 111.218 241.728 107.836C249.564 104.454 280.842 90.2058 277.573 85.6669L260.956 75.8201Z" fill="#CDE6FD"/>
<path d="M113.978 74.3112C125.185 74.3112 134.269 65.2266 134.269 54.0203C134.269 42.8141 125.185 33.7295 113.978 33.7295C102.772 33.7295 93.6875 42.8141 93.6875 54.0203C93.6875 65.2266 102.772 74.3112 113.978 74.3112Z" fill="#0483F7"/>
<path d="M143.185 51.4117C141.324 50.5461 140.179 48.2507 140.974 47.4572C141.769 46.6636 144.1 47.9953 144.1 47.9953C144.18 46.3941 144.512 44.8156 145.084 43.3179C145.904 41.6645 146.896 42.3859 147.724 43.7118C148.854 45.3565 149.894 47.0598 150.844 48.8148C151.018 46.588 150.486 44.3629 149.323 42.4563C148.16 40.5497 146.425 39.0589 144.364 38.1963C142.303 37.3338 140.023 37.1434 137.849 37.6524C135.674 38.1614 133.715 39.3437 132.251 41.031C130.788 42.7182 129.894 44.8243 129.697 47.0493C129.501 49.2742 130.011 51.5044 131.156 53.4222C132.301 55.3399 134.023 56.8474 136.074 57.73C138.126 58.6125 140.404 58.8249 142.584 58.3369C142.985 54.6536 143.185 51.4117 143.185 51.4117Z" fill="#0483F7"/>
<path d="M216.515 31.1007C215.935 31.7765 215.162 32.2594 214.3 32.4855C213.439 32.7115 212.529 32.6698 211.692 32.366C210.985 32.6185 210.258 32.9042 209.528 33.2216C204.161 35.5372 200.346 38.6578 201.008 40.1915C201.671 41.7251 206.557 41.0903 211.924 38.7733C217.291 36.4562 221.104 33.337 220.436 31.8048C220.094 31.0084 218.611 30.7963 216.515 31.1007Z" fill="#0483F7"/>
<path d="M149.785 62.9421L156.016 75.7797L157.355 65.5723L149.785 62.9421Z" fill="#0483F7"/>
<path d="M161.821 116.936L169.006 118.844C168.462 116.764 167.613 113.423 167.194 111.296C166.378 107.477 165.125 103.765 163.46 100.233C162.794 99.1451 164.276 98.265 166.709 96.3678C170.511 93.4044 168.239 90.9171 166.363 87.6175C164.488 84.3179 156.016 75.787 156.016 75.787L146.622 65.4583L146.305 73.2217L154.85 75.4797L161.821 116.936Z" fill="#0483F7"/>
<path d="M65.2304 253.76C68.0748 253.723 70.2587 244.276 70.1085 232.659C69.9581 221.042 67.5306 211.654 64.6862 211.69C61.8418 211.727 59.6578 221.174 59.8081 232.791C59.9583 244.408 62.386 253.796 65.2304 253.76Z" fill="#0483F7"/>
<path d="M76.5373 207.747C76.1887 207.386 75.7657 207.105 75.2975 206.924C74.8292 206.743 74.3271 206.666 73.8263 206.699C72.9174 207.108 72.8164 208.393 72.8164 208.983L76.5373 207.747Z" fill="#0483F7"/>
<path d="M85.5127 226.474C83.9244 227.232 82.3906 228.101 80.9219 229.071C81.7471 230.432 83.2202 231.774 84.5994 231.256C85.5921 230.357 85.8041 228.68 85.5127 226.474Z" fill="#0483F7"/>
<path d="M133.853 281.986C136.595 280.73 134.874 271.105 130.01 260.489C125.146 249.874 118.98 242.286 116.238 243.543C113.496 244.798 115.217 254.423 120.081 265.038C124.945 275.654 131.111 283.242 133.853 281.986Z" fill="#0483F7"/>
<path d="M125.935 234.866C124.962 234.51 123.901 234.474 122.905 234.761C122.34 235.357 122.594 236.583 122.964 237.524L125.935 234.866Z" fill="#0483F7"/>
<path d="M141.403 249.057C140.49 250.003 139.363 251.221 138.518 252.309C138.343 252.533 138.17 252.774 138 253.03C139.154 253.763 141.03 254.617 142.207 253.455C142.549 252.752 142.325 251.12 141.403 249.057Z" fill="#0483F7"/>
<path d="M147.617 58.4884C148.428 58.4197 149.217 58.1845 149.934 57.7976C150.651 57.4105 151.28 56.88 151.782 56.2391C149.752 57.2289 148.493 56.6719 145.91 54.9709L147.617 58.4884Z" fill="#0483F7"/>
<path d="M208.389 17.3254C209.816 17.3254 210.973 16.1685 210.973 14.7414C210.973 13.3144 209.816 12.1575 208.389 12.1575C206.962 12.1575 205.805 13.3144 205.805 14.7414C205.805 16.1685 206.962 17.3254 208.389 17.3254Z" fill="#0483F7"/>
<path d="M217.49 10.8258C218.313 10.8258 218.981 10.1586 218.981 9.33545C218.981 8.51235 218.313 7.84509 217.49 7.84509C216.667 7.84509 216 8.51235 216 9.33545C216 10.1586 216.667 10.8258 217.49 10.8258Z" fill="#0483F7"/>
<path d="M230.236 238.56C229.514 236.004 226.558 234.611 227.062 231.906C227.528 229.392 230.914 226.596 229.116 224.462C227.884 222.999 225.783 223.02 224.066 223.336C222.205 223.682 220.214 224.236 218.533 223.017C218.203 222.812 217.939 222.518 217.767 222.168C217.597 221.819 217.526 221.43 217.567 221.043C217.822 219.6 219.442 218.465 219.256 216.696C219.148 215.911 218.746 215.197 218.132 214.696C215.535 212.436 210.705 213.278 209.26 216.018C208.6 217.269 208.675 219.071 210.242 219.541C210.988 219.765 212.32 219.557 212.576 220.527C212.611 220.811 212.563 221.099 212.441 221.359C212.318 221.617 212.123 221.837 211.881 221.99C211.207 222.438 210.347 222.264 209.622 222.58C208.656 223.124 207.931 224.009 207.587 225.063C207.243 226.114 207.305 227.258 207.76 228.267C208.126 229.02 208.645 229.687 209.287 230.225C209.927 230.761 210.675 231.158 211.48 231.386C213.477 232.001 215.634 231.346 217.61 232.011C218.04 232.129 218.44 232.337 218.785 232.618C219.129 232.901 219.411 233.252 219.613 233.648C220.574 235.948 217.095 238 218.254 242.459C220.224 250.032 231.629 244.232 230.236 238.56Z" fill="#0483F7"/>
<path d="M226.672 255.748C226.689 258.253 231.257 258.216 231.344 255.717C231.224 253.219 226.655 253.244 226.672 255.748Z" fill="#0483F7"/>
<path d="M231.52 244.406C229.294 246.744 231.705 250.236 235.373 249.646C236.202 249.571 236.976 249.203 237.561 248.611C238.145 248.018 238.5 247.238 238.563 246.408C238.54 242.99 233.566 242.262 231.52 244.406Z" fill="#0483F7"/>
<path d="M59.8964 183.064C78.7524 175.136 93.4143 167.226 92.6448 165.395C91.8752 163.564 75.9654 168.507 57.1094 176.435C38.2534 184.363 23.5914 192.273 24.361 194.104C25.1306 195.935 41.0403 190.992 59.8964 183.064Z" fill="#0483F7"/>
<path d="M20.1172 106.427C23.2743 101.67 25.0528 97.2956 24.0896 96.6563C23.1263 96.0169 19.7859 99.3547 16.6288 104.111C13.4715 108.868 11.693 113.242 12.6563 113.882C13.6196 114.521 16.9599 111.183 20.1172 106.427Z" fill="#0483F7"/>
<path d="M44.7494 122.782C41.5927 127.543 39.8138 131.911 40.7776 132.551C41.6143 133.106 44.2488 130.655 46.9973 126.879L44.7581 126.553L48.2294 121.325L49.3994 123.261C51.8117 119.261 53.0467 115.881 52.2099 115.326C51.2476 114.684 47.9062 118.021 44.7494 122.782Z" fill="#0483F7"/>
<path d="M130.979 42.9388C127.357 37.3937 121.096 33.7294 113.978 33.7294C102.772 33.7294 93.6875 42.8138 93.6875 54.0203C93.6875 65.2265 102.772 74.3111 113.978 74.3111C124.329 74.3111 132.869 66.5612 134.113 56.5477" stroke="#0B1B38" stroke-width="1.45" stroke-linecap="round" stroke-linejoin="round"/>
<path d="M143.185 51.4115C141.324 50.5459 140.179 48.2505 140.974 47.457C141.769 46.6634 144.1 47.9951 144.1 47.9951C144.18 46.3939 144.512 44.8154 145.084 43.3177C145.904 41.6643 146.896 42.3857 147.724 43.7116C148.854 45.3563 149.894 47.0596 150.844 48.8146C151.018 46.5878 150.486 44.3627 149.323 42.4561C148.16 40.5495 146.425 39.0587 144.364 38.1961C142.303 37.3335 140.023 37.1432 137.849 37.6522C135.674 38.161 133.715 39.3435 132.251 41.0307C130.788 42.7179 129.894 44.8241 129.697 47.0489C129.501 49.274 130.011 51.5042 131.156 53.422C132.301 55.3397 134.023 56.8472 136.074 57.7298C138.126 58.6122 140.404 58.8247 142.584 58.3367C142.985 54.6534 143.185 51.4115 143.185 51.4115Z" stroke="#0B1B38" stroke-width="1.45" stroke-linecap="round" stroke-linejoin="round"/>
<path d="M216.515 31.1007C215.935 31.7765 215.162 32.2594 214.3 32.4855C213.439 32.7115 212.529 32.6698 211.692 32.366C210.985 32.6185 210.258 32.9042 209.528 33.2216C204.161 35.5372 200.346 38.6578 201.008 40.1915C201.671 41.7251 206.557 41.0903 211.924 38.7733C217.291 36.4562 221.104 33.337 220.436 31.8048C220.094 31.0084 218.611 30.7963 216.515 31.1007Z" stroke="#0B1B38" stroke-width="1.45" stroke-linecap="round" stroke-linejoin="round"/>
<path d="M206.017 51.7969L201.008 40.1915" stroke="#0B1B38" stroke-width="1.45" stroke-linecap="round" stroke-linejoin="round"/>
<path d="M231.493 57.4121L232.044 58.6904L277.573 85.6698C280.841 90.2087 249.564 104.457 241.728 107.839C233.892 111.221 202.068 124.206 201.008 118.715L212.61 67.08" stroke="#0B1B38" stroke-width="1.45" stroke-linecap="round" stroke-linejoin="round"/>
<path d="M220.441 31.8047L223.592 39.1051" stroke="#0B1B38" stroke-width="1.45" stroke-linecap="round" stroke-linejoin="round"/>
<path d="M260.956 75.8201C259.42 78.2728 256.357 80.6043 250.457 76.807C243.054 72.0459 240.232 77.4778 235.429 83.8274C230.626 90.1769 224.715 87.505 221.379 83.2056C220.104 81.3544 218.171 80.0599 215.973 79.5866C213.776 79.1133 211.482 79.497 209.558 80.6591L201.008 118.712C202.068 124.203 233.892 111.218 241.728 107.836C249.564 104.454 280.842 90.2058 277.573 85.6669L260.956 75.8201Z" stroke="#0B1B38" stroke-width="1.45" stroke-linecap="round" stroke-linejoin="round"/>
<path d="M202.148 57.3168L182.871 84.9224L156.717 70.4314L156.016 75.7797C156.016 75.7797 164.486 84.3179 166.363 87.6103C168.24 90.9026 170.511 93.3971 166.709 96.3605C166.421 96.5827 166.155 96.7934 165.9 96.9838L167.732 101.133L177.882 108.617C180.252 110.364 183.204 111.134 186.127 110.766C189.05 110.399 191.719 108.922 193.583 106.642L207.558 89.5493L212.607 67.0698L202.148 57.3168Z" stroke="#0B1B38" stroke-width="1.45" stroke-linecap="round" stroke-linejoin="round"/>
<path d="M211.315 46.1498C207.398 49.2171 205.069 53.189 202.145 57.3167L212.606 67.0769C213.444 63.509 214.034 57.1566 210.423 55.1512L214.194 48.3573C215.955 45.0173 213.213 44.6609 211.315 46.1498Z" stroke="#0B1B38" stroke-width="1.45" stroke-linecap="round" stroke-linejoin="round"/>
<path d="M149.785 62.9421L156.016 75.7797L157.355 65.5723L149.785 62.9421Z" stroke="#0B1B38" stroke-width="1.45" stroke-linecap="round" stroke-linejoin="round"/>
<path d="M161.821 116.935L169.006 118.844C168.462 116.764 167.613 113.422 167.194 111.296C166.378 107.477 165.125 103.765 163.46 100.233C162.794 99.1449 164.276 98.2648 166.709 96.3676C170.511 93.4042 168.239 90.9169 166.363 87.6173C164.488 84.3178 156.016 75.7868 156.016 75.7868L146.622 65.4581L146.305 73.2216L154.85 75.4795L161.821 116.935Z" stroke="#0B1B38" stroke-width="1.45" stroke-linecap="round" stroke-linejoin="round"/>
<path d="M182.606 122.457L161.83 116.936L154.859 75.4723L146.303 73.2144L146.621 65.451C145.031 65.1265 143.391 65.1408 141.808 65.4928C138.912 65.9588 135.337 70.6478 133.335 76.2096C131.332 81.7714 124.615 101.69 121.149 113.585C119.81 118.178 119.118 122.203 124.035 127.058L108.281 173.256C108.281 173.256 149.688 193.299 170.426 197.477L163.011 139.38C171.285 141.037 177.626 142.122 177.626 142.122L182.606 122.457Z" stroke="#0B1B38" stroke-width="1.45" stroke-linecap="round" stroke-linejoin="round"/>
<path d="M150.264 84.5299C149.128 93.9456 147.292 103.263 144.769 112.405L182.602 122.457L177.621 142.122C177.621 142.122 133.081 134.5 126.02 128.825C118.959 123.151 119.65 118.726 121.148 113.585" stroke="#0B1B38" stroke-width="1.45" stroke-linecap="round" stroke-linejoin="round"/>
<path d="M134.832 137.381L128.664 161.817L149.219 166.949L155.345 142.622L134.832 137.381Z" stroke="#0B1B38" stroke-width="1.45" stroke-linecap="round" stroke-linejoin="round"/>
<path d="M163.461 100.233C165.126 103.765 166.378 107.477 167.194 111.296C167.613 113.423 168.463 116.764 169.007 118.844L176.425 120.815L165.893 96.991C163.96 98.4727 162.872 99.2648 163.461 100.233Z" stroke="#0B1B38" stroke-width="1.45" stroke-linecap="round" stroke-linejoin="round"/>
<path d="M178.456 138.844L177.626 142.122C177.626 142.122 176.606 141.947 174.852 141.631C175.078 143.136 178.725 167.39 180.325 180.959L201.286 177.074L184.636 139.394C182.603 138.98 180.53 138.796 178.456 138.844Z" stroke="#0B1B38" stroke-width="1.45" stroke-linecap="round" stroke-linejoin="round"/>
<path d="M163.007 139.381L170.423 197.477C163.814 195.977 157.32 194.005 150.992 191.575L150.542 205.728L122.906 234.761C125.184 233.953 129.172 235.618 135.097 240.82C141.023 246.023 142.956 251.929 142.204 253.449C142.204 253.449 160.309 236.921 170.65 225.214C180.99 213.508 181.339 196.421 181.055 188.646C180.778 181.066 175.132 143.508 174.851 141.627C172.227 141.159 167.965 140.373 163.007 139.381Z" stroke="#0B1B38" stroke-width="1.45" stroke-linecap="round" stroke-linejoin="round"/>
<path d="M214.01 134.938C214.285 134.834 214.512 134.631 214.645 134.368C214.777 134.106 214.809 133.804 214.731 133.52C214.659 133.254 214.497 133.021 214.274 132.859C214.05 132.697 213.779 132.615 213.503 132.628C211.404 132.726 206.369 132.941 203.088 132.894C200.255 132.853 195.874 132.393 193.277 132.092C192.641 132.018 192.037 131.768 191.535 131.369C191.034 130.97 190.653 130.439 190.438 129.835C190.161 129.06 190.167 128.211 190.454 127.439C190.741 126.667 191.292 126.022 192.009 125.617L197.645 122.442C197.989 122.248 198.251 121.932 198.376 121.557C198.503 121.181 198.487 120.772 198.33 120.408C198.171 120.04 197.878 119.747 197.509 119.589C197.141 119.431 196.727 119.419 196.35 119.557C193.958 120.433 189.102 122.213 186.776 123.072C185.299 123.63 183.752 123.99 182.18 124.142L178.453 138.858C181.883 138.854 185.295 139.355 188.578 140.344C191.069 141.065 192.938 141.091 199.806 139.478C204.625 138.243 209.367 136.727 214.01 134.938Z" stroke="#0B1B38" stroke-width="1.45" stroke-linecap="round" stroke-linejoin="round"/>
<path d="M207.759 132.845L211.683 129.76C211.969 129.536 212.162 129.215 212.228 128.857C212.293 128.5 212.226 128.131 212.038 127.82C211.85 127.508 211.556 127.277 211.21 127.167C210.864 127.058 210.489 127.079 210.157 127.227C209.102 127.696 207.271 128.508 204.839 129.581C202.141 130.697 199.379 131.654 196.57 132.448" stroke="#0B1B38" stroke-width="1.45" stroke-linecap="round" stroke-linejoin="round"/>
<path d="M202.928 130.359L206.745 126.329C206.934 126.13 207.041 125.865 207.041 125.589C207.041 125.314 206.934 125.049 206.745 124.849C206.567 124.662 206.331 124.538 206.075 124.497C205.819 124.456 205.557 124.5 205.329 124.623C202.934 125.924 200.432 127.016 197.849 127.888C195.384 128.606 192.847 129.057 190.285 129.234" stroke="#0B1B38" stroke-width="1.45" stroke-linecap="round" stroke-linejoin="round"/>
<path d="M116.017 176.885L110.6 190.328L73.8242 206.695C76.2351 206.073 81.1822 212.033 83.293 218.211C85.4037 224.389 86.6113 229.42 84.5915 231.258C84.5915 231.258 109.711 221.821 114.573 219.571C119.435 217.322 130.713 212.146 137.552 201.133C140.035 197.242 142.222 193.169 144.093 188.95C133.43 184.758 122.875 180.046 116.017 176.885Z" stroke="#0B1B38" stroke-width="1.45" stroke-linecap="round" stroke-linejoin="round"/>
<path d="M65.2304 253.76C68.0748 253.723 70.2587 244.276 70.1085 232.659C69.9581 221.04 67.5306 211.652 64.6862 211.69C61.8418 211.726 59.6578 221.174 59.8081 232.791C59.9583 244.408 62.386 253.796 65.2304 253.76Z" stroke="#0B1B38" stroke-width="1.45" stroke-linecap="round" stroke-linejoin="round"/>
<path d="M83.2936 218.215C81.9588 214.212 79.6342 210.611 76.5358 207.747L64.6836 211.69C67.5287 211.652 69.9554 221.042 70.1055 232.657C70.2555 244.273 68.0726 253.721 65.2275 253.759C67.0829 254.369 70.143 250.69 71.6708 246.862C73.1987 243.035 74.1048 235.032 78.0002 231.366C80.2556 229.382 82.7854 227.735 85.5111 226.474C85.0293 223.657 84.287 220.893 83.2936 218.215Z" stroke="#0B1B38" stroke-width="1.45" stroke-linecap="round" stroke-linejoin="round"/>
<path d="M76.5373 207.747C76.1887 207.386 75.7657 207.105 75.2975 206.923C74.8292 206.743 74.3271 206.666 73.8263 206.699C72.9174 207.108 72.8164 208.393 72.8164 208.983L76.5373 207.747Z" stroke="#0B1B38" stroke-width="1.45" stroke-linecap="round" stroke-linejoin="round"/>
<path d="M85.5127 226.474C83.9244 227.232 82.3906 228.1 80.9219 229.071C81.7471 230.432 83.2202 231.774 84.5994 231.256C85.5921 230.357 85.8041 228.68 85.5127 226.474Z" stroke="#0B1B38" stroke-width="1.45" stroke-linecap="round" stroke-linejoin="round"/>
<path d="M133.853 281.986C136.595 280.73 134.874 271.105 130.01 260.489C125.146 249.873 118.98 242.286 116.238 243.541C113.496 244.798 115.217 254.422 120.081 265.038C124.945 275.654 131.111 283.241 133.853 281.986Z" stroke="#0B1B38" stroke-width="1.45" stroke-linecap="round" stroke-linejoin="round"/>
<path d="M135.099 240.825C131.247 237.44 128.214 235.551 125.936 234.866L116.242 243.54C118.983 242.283 125.151 249.872 130.015 260.488C134.878 271.104 136.599 280.728 133.858 281.985C137.022 280.686 137.35 275.27 136.866 271.95C136.383 268.631 135.993 264.513 135.598 261.408C135.457 258.125 136.492 254.897 138.517 252.309C139.365 251.222 140.492 250 141.402 249.057C139.905 245.899 137.757 243.094 135.099 240.825Z" stroke="#0B1B38" stroke-width="1.45" stroke-linecap="round" stroke-linejoin="round"/>
<path d="M125.935 234.866C124.962 234.51 123.901 234.474 122.905 234.761C122.34 235.357 122.594 236.583 122.964 237.524L125.935 234.866Z" stroke="#0B1B38" stroke-width="1.45" stroke-linecap="round" stroke-linejoin="round"/>
<path d="M141.403 249.057C140.49 250.003 139.363 251.221 138.518 252.309C138.343 252.533 138.17 252.774 138 253.03C139.154 253.763 141.03 254.617 142.207 253.455C142.549 252.752 142.325 251.12 141.403 249.057Z" stroke="#0B1B38" stroke-width="1.45" stroke-linecap="round" stroke-linejoin="round"/>
<path d="M141.478 65.565C141.587 65.5349 141.699 65.5108 141.811 65.4929C143.394 65.1409 145.034 65.1266 146.624 65.4511L156.018 75.7797L147.624 58.4883C151.971 57.6386 152.818 55.4802 152.16 52.2989C151.474 49.008 148.553 45.0376 147.725 43.7117C146.896 42.3858 145.904 41.6644 145.084 43.3178C144.513 44.8156 144.181 46.3941 144.101 47.9952C144.101 47.9952 141.768 46.6636 140.974 47.4571C140.181 48.2506 141.325 50.5402 143.186 51.4117C142.906 56.1599 142.336 60.8865 141.478 65.565Z" stroke="#0B1B38" stroke-width="1.45" stroke-linecap="round" stroke-linejoin="round"/>
<path d="M147.617 58.4884C148.428 58.4197 149.217 58.1845 149.934 57.7976C150.651 57.4105 151.28 56.88 151.782 56.2391C149.752 57.2289 148.493 56.6719 145.91 54.9709L147.617 58.4884Z" stroke="#0B1B38" stroke-width="1.45" stroke-linecap="round" stroke-linejoin="round"/>
<path d="M213.188 32.63C215.609 32.63 217.571 30.6675 217.571 28.2469C217.571 25.8261 215.609 23.8638 213.188 23.8638C210.767 23.8638 208.805 25.8261 208.805 28.2469C208.805 30.6675 210.767 32.63 213.188 32.63Z" stroke="#0B1B38" stroke-width="1.45" stroke-linecap="round" stroke-linejoin="round"/>
<path d="M246.609 182.437L265.558 149.877L240.975 141.113L222.027 173.672L246.609 182.437Z" stroke="#0B1B38" stroke-width="1.45" stroke-linecap="round" stroke-linejoin="round"/>
<path d="M251.274 158.292L242.242 155.072" stroke="#0B1B38" stroke-width="1.45" stroke-linecap="round" stroke-linejoin="round"/>
<path d="M249.253 161.753L240.223 158.534" stroke="#0B1B38" stroke-width="1.45" stroke-linecap="round" stroke-linejoin="round"/>
<path d="M247.245 165.216L238.215 161.996" stroke="#0B1B38" stroke-width="1.45" stroke-linecap="round" stroke-linejoin="round"/>
<path d="M60.5116 83.3658L41.5625 50.8058L66.1455 42.0411L85.0946 74.6011L60.5116 83.3658Z" stroke="#0B1B38" stroke-width="1.45" stroke-linecap="round" stroke-linejoin="round"/>
<path d="M55.8516 59.2199L64.8817 56.0011" stroke="#0B1B38" stroke-width="1.45" stroke-linecap="round" stroke-linejoin="round"/>
<path d="M57.8633 62.6823L66.8935 59.4621" stroke="#0B1B38" stroke-width="1.45" stroke-linecap="round" stroke-linejoin="round"/>
<path d="M59.8789 66.1435L68.9105 62.9247" stroke="#0B1B38" stroke-width="1.45" stroke-linecap="round" stroke-linejoin="round"/>
<path d="M258.055 254.581L227.932 200.635L187.301 215.028L217.424 268.974L258.055 254.581Z" stroke="#0B1B38" stroke-width="1.45" stroke-linecap="round" stroke-linejoin="round"/>
<path d="M217.421 268.974L187.298 215.028L187.164 219.413L217.287 273.359L257.918 258.966L258.052 254.581L217.421 268.974Z" stroke="#0B1B38" stroke-width="1.45" stroke-linecap="round" stroke-linejoin="round"/>
<path d="M92.6428 165.395C91.8738 163.564 75.9632 168.507 57.1079 176.435C38.2526 184.363 23.5899 192.273 24.3574 194.104L16.1641 174.595L84.448 145.884L92.6428 165.395Z" stroke="#0B1B38" stroke-width="1.45" stroke-linecap="round" stroke-linejoin="round"/>
<path d="M59.8964 183.064C78.7524 175.136 93.4143 167.224 92.6448 165.395C91.8752 163.564 75.9654 168.507 57.1094 176.435C38.2534 184.363 23.5914 192.273 24.361 194.104C25.1306 195.935 41.0403 190.992 59.8964 183.064Z" stroke="#0B1B38" stroke-width="1.45" stroke-linecap="round" stroke-linejoin="round"/>
<path d="M77.1054 143.3L19.4375 167.546L21.4628 172.363L79.1308 148.116L77.1054 143.3Z" stroke="#0B1B38" stroke-width="1.45" stroke-linecap="round" stroke-linejoin="round"/>
<path d="M20.1172 106.427C23.2743 101.67 25.0528 97.2955 24.0896 96.656C23.1263 96.0167 19.7859 99.3544 16.6288 104.111C13.4715 108.868 11.693 113.242 12.6563 113.882C13.6196 114.521 16.9599 111.183 20.1172 106.427Z" stroke="#0B1B38" stroke-width="1.45" stroke-linecap="round" stroke-linejoin="round"/>
<path d="M44.7494 122.782C41.5927 127.543 39.8138 131.911 40.7776 132.551C41.6143 133.106 44.2488 130.655 46.9973 126.879L44.7581 126.553L48.2294 121.325L49.3994 123.261C51.8117 119.261 53.0467 115.881 52.2099 115.326C51.2476 114.684 47.9062 118.021 44.7494 122.782Z" stroke="#0B1B38" stroke-width="1.45" stroke-linecap="round" stroke-linejoin="round"/>
<path d="M52.2067 115.323C51.2444 114.683 47.9045 118.022 44.7463 122.777C41.5881 127.532 39.8106 131.908 40.7744 132.548L12.6523 113.883C13.6147 114.522 16.9546 111.183 20.1113 106.427C23.2681 101.67 25.0484 97.2968 24.0847 96.6577L52.2067 115.323Z" stroke="#0B1B38" stroke-width="1.45" stroke-linecap="round" stroke-linejoin="round"/>
<path d="M44.7578 126.55L52.0307 127.61L48.2291 121.322L44.7578 126.55Z" stroke="#0B1B38" stroke-width="1.45" stroke-linecap="round" stroke-linejoin="round"/>
<path d="M23.8292 121.301L19.4375 167.546L31.7759 162.358L27.9021 124.005L23.8292 121.301Z" stroke="#0B1B38" stroke-width="1.45" stroke-linecap="round" stroke-linejoin="round"/>
<path d="M174.104 56.5088C176.509 56.5088 178.458 54.5594 178.458 52.1546C178.458 49.7498 176.509 47.8004 174.104 47.8004C171.699 47.8004 169.75 49.7498 169.75 52.1546C169.75 54.5594 171.699 56.5088 174.104 56.5088Z" stroke="#0B1B38" stroke-width="1.45" stroke-linecap="round" stroke-linejoin="round"/>
<path d="M184.362 51.8574C186.767 51.8574 188.716 49.9079 188.716 47.5031C188.716 45.0984 186.767 43.1489 184.362 43.1489C181.957 43.1489 180.008 45.0984 180.008 47.5031C180.008 49.9079 181.957 51.8574 184.362 51.8574Z" stroke="#0B1B38" stroke-width="1.45" stroke-linecap="round" stroke-linejoin="round"/>
<path d="M184.366 47.5034L174.109 52.1548" stroke="#0B1B38" stroke-width="1.45" stroke-linecap="round" stroke-linejoin="round"/>
<path d="M159.298 55.626C158.658 55.3964 158.136 54.9222 157.846 54.3077C157.556 53.6933 157.523 52.9889 157.752 52.3495C157.982 51.7101 158.456 51.1881 159.071 50.8984C159.686 50.6085 160.39 50.5748 161.029 50.8043L170.212 54.0967" stroke="#0B1B38" stroke-width="1.45" stroke-linecap="round" stroke-linejoin="round"/>
<path d="M98.4922 84.5818L106.547 92.6367" stroke="#0B1B38" stroke-width="1.45" stroke-linecap="round" stroke-linejoin="round"/>
<path d="M98.4922 92.6367L106.547 84.5818" stroke="#0B1B38" stroke-width="1.45" stroke-linecap="round" stroke-linejoin="round"/>
<path d="M38.5391 211.351L45.7629 218.574" stroke="#0B1B38" stroke-width="1.45" stroke-linecap="round" stroke-linejoin="round"/>
<path d="M38.5391 218.574L45.7629 211.351" stroke="#0B1B38" stroke-width="1.45" stroke-linecap="round" stroke-linejoin="round"/>
<path d="M257.891 116.563L275.061 133.735" stroke="#0B1B38" stroke-width="1.45" stroke-linecap="round" stroke-linejoin="round"/>
<path d="M257.891 133.735L275.061 116.563" stroke="#0B1B38" stroke-width="1.45" stroke-linecap="round" stroke-linejoin="round"/>
<path d="M258.973 204.635V215.799" stroke="#0B1B38" stroke-width="1.45" stroke-linecap="round" stroke-linejoin="round"/>
<path d="M264.551 210.217H253.387" stroke="#0B1B38" stroke-width="1.45" stroke-linecap="round" stroke-linejoin="round"/>
<path d="M264.551 219.766V236.175" stroke="#0B1B38" stroke-width="1.45" stroke-linecap="round" stroke-linejoin="round"/>
<path d="M272.759 227.97H256.352" stroke="#0B1B38" stroke-width="1.45" stroke-linecap="round" stroke-linejoin="round"/>
<path d="M228.102 54.1688L224.371 60.048C224.223 60.2827 224.161 60.5625 224.198 60.8381C224.234 61.1136 224.368 61.3673 224.573 61.5541C224.78 61.7411 225.045 61.8494 225.322 61.86C225.601 61.8706 225.873 61.7828 226.093 61.612L231.864 57.1192C232.344 56.7457 232.719 56.2536 232.953 55.6912C233.185 55.1287 233.269 54.5154 233.192 53.9114C233.117 53.3073 232.885 52.7333 232.521 52.2458C232.156 51.7583 231.672 51.3739 231.113 51.1304" stroke="#0B1B38" stroke-width="1.45" stroke-linecap="round" stroke-linejoin="round"/>
<path d="M226.207 49.7684L222.479 55.6476C222.331 55.8823 222.27 56.1616 222.308 56.4366C222.345 56.7116 222.478 56.9647 222.684 57.1512C222.889 57.3378 223.155 57.446 223.432 57.4567C223.709 57.4675 223.981 57.3802 224.201 57.2101L229.972 52.7188C230.452 52.3451 230.827 51.853 231.061 51.2905C231.293 50.7281 231.377 50.1148 231.3 49.5107C231.225 48.9066 230.995 48.3324 230.629 47.8448C230.266 47.357 229.781 46.9723 229.223 46.7285" stroke="#0B1B38" stroke-width="1.45" stroke-linecap="round" stroke-linejoin="round"/>
<path d="M224.311 45.3665L220.578 51.2471C220.43 51.4818 220.368 51.7616 220.405 52.0372C220.443 52.3127 220.575 52.5664 220.78 52.7532C220.987 52.9402 221.252 53.0485 221.529 53.0591C221.808 53.0697 222.08 52.9819 222.3 52.811L228.071 48.3183C228.551 47.9447 228.926 47.4525 229.158 46.8903C229.392 46.3281 229.474 45.7149 229.399 45.1111C229.323 44.5072 229.092 43.9332 228.728 43.4457C228.363 42.9581 227.879 42.5734 227.322 42.3295" stroke="#0B1B38" stroke-width="1.45" stroke-linecap="round" stroke-linejoin="round"/>
<path d="M222.662 36.9567L223.589 39.1049L218.676 46.8467C218.527 47.0815 218.465 47.3612 218.503 47.6368C218.539 47.9123 218.673 48.166 218.878 48.3528C219.084 48.5398 219.35 48.6481 219.627 48.6587C219.905 48.6693 220.178 48.5815 220.397 48.4107L226.168 43.9179C226.667 43.5294 227.051 43.0135 227.282 42.4245C227.511 41.8358 227.578 41.1956 227.475 40.5719C227.371 39.9482 227.102 39.3639 226.693 38.8809C226.286 38.3977 225.756 38.0334 225.158 37.8266L222.662 36.9567Z" stroke="#0B1B38" stroke-width="1.45" stroke-linecap="round" stroke-linejoin="round"/>
</svg>
