<svg width="290" height="290" viewBox="0 0 290 290" fill="none" xmlns="http://www.w3.org/2000/svg">
<path d="M140.18 182.734L133.738 191.122L143.744 198.825L150.186 190.409L140.18 182.734Z" fill="#CDE6FD"/>
<path d="M221.95 94.9582L221.594 114.393L226.775 110.994C230.475 108.556 238.047 113.512 243.655 122.043C249.263 130.574 250.837 139.477 247.136 141.917L242.97 144.658L258.981 151.348L259.749 110.778L221.95 94.9582Z" fill="#CDE6FD"/>
<path d="M100.35 252.69L91.6055 257.35L93.3541 247.81C93.9903 251.675 96.1285 253.54 100.35 252.69Z" fill="#CDE6FD"/>
<path d="M132.201 50.0843C131.68 43.6699 131.165 43.6064 128.719 37.5843C126.5 32.1235 131.049 26.1534 137.19 26.126C143.33 26.0986 147.886 32.0153 145.688 37.5021C143.251 43.5818 142.645 44.1633 142.206 50.0843H132.201Z" fill="#CDE6FD"/>
<path d="M76.6173 92.82L75.5208 90.6819L25.5439 116.066C25.314 116.184 25.049 116.217 24.7974 116.156C24.5457 116.096 24.3242 115.947 24.1733 115.737C22.3113 113.201 20.8846 110.373 19.9518 107.369C19.8688 107.124 19.8788 106.858 19.9799 106.62C20.0811 106.382 20.2662 106.19 20.5001 106.08L70.4697 80.7038L69.428 78.7027L18.4124 104.603C17.9194 104.856 17.5326 105.276 17.3211 105.789C17.1097 106.301 17.0874 106.872 17.2582 107.399C18.433 111.232 20.2497 114.837 22.631 118.062C22.961 118.504 23.4361 118.814 23.9726 118.94C24.5092 119.065 25.0728 118.997 25.5641 118.748L76.6173 92.82Z" fill="#0483F7"/>
<path d="M237.081 263.874H45.5224C44.8027 263.874 44.1124 263.588 43.6034 263.079C43.0945 262.57 42.8086 261.88 42.8086 261.16C42.8086 260.44 43.0945 259.75 43.6034 259.241C44.1124 258.732 44.8027 258.446 45.5224 258.446H237.081C237.8 258.446 238.491 258.732 239 259.241C239.509 259.75 239.794 260.44 239.794 261.16C239.794 261.88 239.509 262.57 239 263.079C238.491 263.588 237.8 263.874 237.081 263.874Z" fill="#0483F7"/>
<path d="M89.3542 191.341C88.5318 187.942 88.3947 184.272 89.4912 181.884C92.0882 182.679 93.7156 183.904 93.8498 185.859C93.9912 187.939 92.1776 189.806 89.3542 191.341Z" fill="#0483F7"/>
<path d="M61.9454 195.371C58.327 194.658 55.7791 193.231 55.4531 190.898C55.1804 188.978 56.714 187.225 59.3182 185.745C60.1728 188.959 61.0486 192.168 61.9454 195.371Z" fill="#0483F7"/>
<path d="M139.164 120.342C139.59 121.785 139.81 123.279 139.822 124.784V124.866C140.014 126.319 140.809 126.401 142.92 124.7C142.722 123.712 142.273 122.791 141.615 122.028C140.957 121.264 140.112 120.683 139.164 120.342Z" fill="#0483F7"/>
<path d="M119.374 119.218C118.538 119.217 117.71 119.397 116.949 119.744C116.188 120.091 115.51 120.598 114.962 121.23C114.413 121.862 114.008 122.605 113.772 123.408C113.536 124.211 113.475 125.055 113.595 125.883C113.714 126.712 114.01 127.505 114.462 128.208C114.915 128.912 115.514 129.511 116.218 129.963C116.922 130.415 117.716 130.71 118.544 130.828C119.372 130.947 120.217 130.885 121.019 130.649C121.779 127.575 122.835 124.583 124.172 121.712C123.634 120.939 122.917 120.307 122.081 119.873C121.245 119.438 120.316 119.213 119.374 119.218Z" fill="#0483F7"/>
<path d="M29.4863 212.887C29.6655 213.079 29.7998 213.308 29.8795 213.558C29.9591 213.808 29.9821 214.073 29.9467 214.333C29.9114 214.593 29.8185 214.842 29.675 215.062C29.5315 215.282 29.3409 215.467 29.117 215.604C28.8173 215.787 28.4695 215.877 28.1183 215.862C27.7672 215.847 27.4286 215.726 27.1462 215.517C26.864 215.308 26.6504 215.02 26.5325 214.689C26.4146 214.358 26.3977 213.999 26.4839 213.659C26.5705 213.318 26.7581 213.011 27.0192 212.777C27.1869 212.62 27.3844 212.498 27.6 212.419C27.8155 212.339 28.0449 212.304 28.2744 212.314C28.5042 212.325 28.7297 212.381 28.9377 212.479C29.1457 212.578 29.3322 212.716 29.4863 212.887Z" fill="#0483F7"/>
<path d="M173.54 128.757C175.376 128.106 176.941 126.859 177.986 125.215C179.032 123.571 179.497 121.624 179.307 119.685C179.118 117.746 178.286 115.926 176.943 114.515C175.599 113.104 173.822 112.183 171.895 111.899C172.948 110.622 173.617 109.072 173.824 107.429C174.031 105.786 173.767 104.119 173.062 102.621C172.358 101.123 171.244 99.855 169.849 98.9646C168.453 98.0742 166.834 97.5975 165.179 97.5897C164.306 97.5898 163.438 97.7196 162.602 97.975C162.862 96.5771 162.775 95.1371 162.35 93.7804C161.926 92.4237 161.176 91.1914 160.166 90.1909C159.156 89.1904 157.916 88.4521 156.556 88.0402C155.195 87.6284 153.754 87.5556 152.359 87.8281C150.492 88.1913 148.794 89.1549 147.526 90.5722C147.054 88.6787 145.963 86.9973 144.426 85.7957C142.888 84.5941 140.993 83.9413 139.042 83.9413C137.09 83.9413 135.195 84.5941 133.658 85.7957C132.12 86.9973 131.029 88.6787 130.557 90.5722C129.289 89.1549 127.591 88.1912 125.724 87.828C123.856 87.4648 121.922 87.722 120.214 88.5605C118.506 89.3989 117.12 90.7726 116.265 92.4722C115.411 94.1719 115.135 96.1043 115.481 97.975C113.685 97.4163 111.757 97.4525 109.983 98.0782C108.21 98.7039 106.686 99.8857 105.638 101.448C104.591 103.009 104.076 104.868 104.17 106.746C104.264 108.624 104.962 110.422 106.161 111.872C104.233 112.156 102.456 113.077 101.113 114.488C99.77 115.899 98.9375 117.719 98.7483 119.658C98.5591 121.597 99.0242 123.543 100.069 125.187C101.115 126.832 102.68 128.079 104.516 128.73C102.905 129.792 101.69 131.358 101.063 133.183C100.435 135.008 100.429 136.989 101.045 138.818C101.662 140.647 102.867 142.22 104.471 143.292C106.076 144.364 107.991 144.875 109.916 144.745C109.334 146.087 109.09 147.552 109.204 149.011C109.319 150.469 109.788 151.878 110.572 153.113C111.356 154.349 112.43 155.374 113.701 156.099C114.973 156.824 116.402 157.226 117.864 157.272C122.443 156.285 126.28 155.984 127.487 155.541C130.07 154.627 130.882 150.5 131.112 147.173L134.834 141.979C133.623 142.334 132.385 142.591 131.133 142.745C126.28 143.348 118.661 142.609 120.881 131.37C119.746 131.64 118.558 131.6 117.444 131.253C116.33 130.906 115.329 130.265 114.548 129.398C113.767 128.532 113.233 127.47 113.003 126.326C112.773 125.182 112.856 123.997 113.242 122.896C113.627 121.794 114.302 120.817 115.195 120.066C116.089 119.315 117.168 118.818 118.319 118.628C119.471 118.438 120.652 118.561 121.739 118.985C122.827 119.408 123.78 120.117 124.499 121.036C130.914 107.631 136.807 112.949 138.973 119.556C140.082 119.867 141.087 120.468 141.887 121.297C142.686 122.125 143.251 123.152 143.523 124.271C147.69 121.721 150.843 129.011 142.729 133.262C141.111 134.112 140.782 135.947 141.413 146.473C141.742 152.313 146.923 156.451 151.665 157.302C152.707 157.494 153.913 157.712 155.174 157.986C155.401 157.248 155.53 156.484 155.557 155.712C156.747 156.444 158.094 156.88 159.486 156.984C160.879 157.089 162.276 156.858 163.56 156.311C164.845 155.764 165.98 154.918 166.871 153.842C167.761 152.766 168.381 151.493 168.678 150.129C169.075 148.303 168.875 146.397 168.109 144.693C169.303 144.774 170.501 144.608 171.629 144.207C172.756 143.805 173.789 143.176 174.663 142.358C175.537 141.541 176.234 140.553 176.709 139.455C177.185 138.356 177.431 137.172 177.43 135.976C177.435 134.543 177.083 133.132 176.403 131.872C175.724 130.611 174.739 129.54 173.54 128.757Z" fill="#0483F7"/>
<path d="M278.09 134.296C279.789 134.351 282.065 132.377 282.065 132.377C282.065 132.377 279.901 130.238 278.227 130.183C276.527 130.128 275.129 131.005 275.102 132.131C275.075 133.282 276.418 134.241 278.09 134.296Z" fill="#0483F7"/>
<path d="M278.09 134.296C279.789 134.351 282.065 132.377 282.065 132.377C282.065 132.377 279.901 130.238 278.227 130.183C276.527 130.128 275.129 131.005 275.102 132.131C275.075 133.282 276.418 134.241 278.09 134.296Z" stroke="#0B1B38" stroke-width="1.45" stroke-linejoin="round"/>
<path d="M237.847 139.373C231.948 134.452 227.629 127.901 225.43 120.54C231.329 125.461 235.648 132.012 237.847 139.373Z" fill="#0483F7"/>
<path d="M165.673 207.597L163.261 217.301L162.164 200.661C163.151 202.745 164.357 205.075 165.673 207.597Z" fill="#0483F7"/>
<path d="M141.881 170.837C141.88 171.047 141.833 171.255 141.743 171.445C141.653 171.635 141.522 171.803 141.359 171.937C141.196 172.07 141.006 172.166 140.802 172.218C140.598 172.269 140.385 172.275 140.178 172.235C139.832 172.166 139.523 171.97 139.312 171.686C139.101 171.402 139.004 171.05 139.038 170.698C139.073 170.345 139.237 170.019 139.499 169.781C139.761 169.543 140.102 169.412 140.455 169.411C140.643 169.41 140.828 169.446 141.002 169.517C141.175 169.589 141.333 169.693 141.465 169.825C141.598 169.958 141.703 170.116 141.774 170.289C141.846 170.463 141.882 170.649 141.881 170.837Z" fill="#0483F7"/>
<path d="M120.658 189.916C120.657 190.197 120.574 190.473 120.417 190.707C120.26 190.942 120.038 191.124 119.778 191.233C119.583 191.312 119.374 191.347 119.164 191.336C118.955 191.325 118.75 191.268 118.566 191.168C118.381 191.069 118.22 190.929 118.095 190.761C117.971 190.592 117.885 190.398 117.844 190.192C117.803 189.986 117.808 189.774 117.859 189.57C117.909 189.366 118.004 189.176 118.137 189.014C118.27 188.851 118.437 188.72 118.626 188.629C118.816 188.539 119.023 188.491 119.232 188.49C119.42 188.489 119.605 188.525 119.779 188.596C119.952 188.667 120.11 188.772 120.242 188.904C120.375 189.037 120.48 189.195 120.551 189.369C120.622 189.542 120.659 189.728 120.658 189.916Z" fill="#0483F7"/>
<path d="M138.615 233.152C138.614 233.434 138.531 233.709 138.374 233.944C138.217 234.178 137.995 234.361 137.735 234.469C137.54 234.548 137.331 234.584 137.121 234.573C136.912 234.561 136.707 234.504 136.523 234.404C136.338 234.305 136.177 234.166 136.052 233.997C135.928 233.828 135.842 233.634 135.801 233.428C135.76 233.222 135.765 233.01 135.816 232.806C135.866 232.603 135.961 232.413 136.094 232.25C136.227 232.088 136.394 231.956 136.583 231.866C136.773 231.775 136.98 231.728 137.189 231.727C137.377 231.726 137.562 231.762 137.736 231.833C137.909 231.904 138.067 232.008 138.199 232.141C138.332 232.274 138.437 232.431 138.508 232.605C138.579 232.778 138.616 232.964 138.615 233.152Z" fill="#0483F7"/>
<path d="M147.526 90.5723C148.795 89.1537 150.492 88.189 152.36 87.8251C154.228 87.4613 156.163 87.7183 157.872 88.557C159.58 89.3957 160.967 90.77 161.821 92.4704C162.675 94.1708 162.95 96.104 162.603 97.975C164.399 97.4163 166.327 97.4525 168.1 98.0783C169.874 98.704 171.398 99.8858 172.445 101.448C173.493 103.01 174.008 104.868 173.914 106.746C173.82 108.625 173.122 110.422 171.923 111.872C173.852 112.154 175.631 113.073 176.976 114.485C178.322 115.896 179.155 117.717 179.345 119.657C179.534 121.597 179.068 123.545 178.021 125.19C176.974 126.834 175.406 128.081 173.568 128.73C174.773 129.527 175.761 130.611 176.445 131.883C177.129 133.156 177.488 134.578 177.488 136.023H177.466C177.466 137.22 177.22 138.403 176.745 139.501C176.269 140.598 175.572 141.587 174.699 142.404C173.825 143.222 172.792 143.85 171.665 144.252C170.538 144.654 169.34 144.82 168.146 144.74C168.742 146.069 168.997 147.525 168.888 148.978C168.72 151.169 167.732 153.217 166.121 154.713C164.51 156.209 162.395 157.043 160.197 157.048C158.568 157.055 156.971 156.599 155.591 155.733C155.561 156.504 155.432 157.269 155.207 158.008C154.043 157.752 152.873 157.524 151.699 157.323C146.948 156.522 141.799 152.306 141.447 146.502C140.809 135.97 141.144 134.138 142.762 133.289C151.285 128.817 147.368 121.034 142.927 124.735C140.789 126.517 139.849 126.107 139.829 124.791C139.699 116.866 132.164 103.242 123.732 122.727C115.301 142.211 125.24 143.45 131.134 142.738C131.161 142.984 131.91 154.003 127.488 155.539C126.283 155.958 122.438 156.253 117.865 157.271C116.403 157.223 114.974 156.819 113.704 156.093C112.434 155.368 111.36 154.343 110.577 153.108C109.793 151.872 109.323 150.464 109.208 149.006C109.093 147.548 109.337 146.083 109.917 144.74C107.991 144.871 106.077 144.36 104.472 143.288C102.867 142.216 101.663 140.643 101.046 138.814C100.429 136.985 100.435 135.004 101.063 133.179C101.691 131.354 102.905 129.788 104.516 128.726C102.679 128.075 101.113 126.829 100.067 125.184C99.0207 123.54 98.5551 121.593 98.7444 119.653C98.9336 117.714 99.7667 115.893 101.111 114.482C102.455 113.071 104.233 112.15 106.161 111.867C104.968 110.419 104.272 108.625 104.178 106.751C104.084 104.877 104.597 103.023 105.64 101.463C106.683 99.9031 108.201 98.7209 109.969 98.0916C111.736 97.4622 113.66 97.4193 115.454 97.9692C115.109 96.0987 115.385 94.1665 116.239 92.4672C117.094 90.7679 118.481 89.3945 120.188 88.5563C121.896 87.718 123.83 87.4609 125.697 87.8241C127.565 88.1873 129.262 89.1508 130.531 90.5679C131.006 88.6736 132.1 86.9923 133.64 85.7912C135.18 84.5901 137.077 83.938 139.03 83.9385C140.983 83.939 142.88 84.592 144.419 85.794C145.959 86.9959 147.052 88.6777 147.526 90.5723Z" stroke="#0B1B38" stroke-width="1.45" stroke-linecap="round" stroke-linejoin="round"/>
<path d="M262.133 224.291C262.134 224.882 261.96 225.46 261.632 225.953C261.304 226.445 260.837 226.828 260.29 227.054C259.744 227.281 259.143 227.34 258.563 227.224C257.983 227.108 257.45 226.822 257.033 226.403C256.614 225.986 256.329 225.453 256.214 224.873C256.098 224.293 256.158 223.692 256.385 223.147C256.612 222.601 256.995 222.135 257.486 221.806C257.977 221.478 258.554 221.303 259.145 221.303C259.937 221.304 260.696 221.62 261.256 222.18C261.816 222.74 262.132 223.499 262.133 224.291Z" stroke="#0B1B38" stroke-width="1.45" stroke-linecap="round" stroke-linejoin="round"/>
<path d="M237.081 263.846C237.8 263.846 238.491 263.561 239 263.052C239.509 262.543 239.794 261.852 239.794 261.133C239.794 260.413 239.509 259.723 239 259.214C238.491 258.705 237.8 258.419 237.081 258.419H45.5224C44.8027 258.419 44.1124 258.705 43.6034 259.214C43.0945 259.723 42.8086 260.413 42.8086 261.133C42.8086 261.852 43.0945 262.543 43.6034 263.052C44.1124 263.561 44.8027 263.846 45.5224 263.846H237.081Z" stroke="#0B1B38" stroke-width="1.45" stroke-linecap="round" stroke-linejoin="round"/>
<path d="M76.6173 92.82L75.5208 90.6819L25.5439 116.066C25.314 116.184 25.049 116.217 24.7974 116.156C24.5457 116.096 24.3242 115.947 24.1733 115.737C22.3113 113.201 20.8846 110.373 19.9518 107.369C19.8688 107.124 19.8788 106.858 19.9799 106.62C20.0811 106.382 20.2662 106.19 20.5001 106.08L70.4697 80.7038L69.428 78.7027L18.4124 104.603C17.9194 104.856 17.5326 105.276 17.3211 105.789C17.1097 106.301 17.0874 106.872 17.2582 107.399C18.433 111.232 20.2497 114.837 22.631 118.062C22.961 118.504 23.4361 118.814 23.9726 118.94C24.5092 119.065 25.0728 118.997 25.5641 118.748L76.6173 92.82Z" stroke="#0B1B38" stroke-width="1.45" stroke-linecap="round" stroke-linejoin="round"/>
<path d="M71.04 92.9571L65.9688 82.9791" stroke="#0B1B38" stroke-width="1.45" stroke-linecap="round" stroke-linejoin="round"/>
<path d="M69.863 90.6545L40.832 105.402" stroke="#0B1B38" stroke-width="1.45" stroke-linecap="round" stroke-linejoin="round"/>
<path d="M68.1379 87.228L21.3438 110.994" stroke="#0B1B38" stroke-width="1.45" stroke-linecap="round" stroke-linejoin="round"/>
<path d="M69.8672 90.6545C76.2542 87.4198 79.297 91.4494 81.956 90.1062" stroke="#0B1B38" stroke-width="1.45" stroke-linecap="round" stroke-linejoin="round"/>
<path d="M20.5781 109.185L67.2626 85.501" stroke="#0B1B38" stroke-width="1.45" stroke-linecap="round" stroke-linejoin="round"/>
<path d="M213.341 259.735L230.09 178.616C230.395 177.134 230.376 175.604 230.033 174.131C229.69 172.657 229.033 171.276 228.105 170.081C227.177 168.886 226.002 167.906 224.661 167.207C223.319 166.509 221.842 166.108 220.331 166.034L167.453 163.467" stroke="#0B1B38" stroke-width="1.45" stroke-linecap="round" stroke-linejoin="round"/>
<path d="M219.21 231.308L210.273 230.65" stroke="#0B1B38" stroke-width="1.45" stroke-linecap="round" stroke-linejoin="round"/>
<path d="M165.673 207.597L161.551 224.197" stroke="#0B1B38" stroke-width="1.45" stroke-linecap="round" stroke-linejoin="round"/>
<path d="M115.28 246.858C114.238 246.666 110.278 245.992 107.934 245.57" stroke="#0B1B38" stroke-width="1.45" stroke-linecap="round" stroke-linejoin="round"/>
<path d="M113.695 252.553C114.408 252.713 118.657 253.512 119.205 253.54" stroke="#0B1B38" stroke-width="1.45" stroke-linecap="round" stroke-linejoin="round"/>
<path d="M105.265 225.12C103.93 224.287 102.322 224.011 100.786 224.351C99.2145 224.717 97.825 225.631 96.8657 226.928C95.9381 228.23 95.5358 229.834 95.7391 231.419C95.9423 233.004 96.7362 234.455 97.9622 235.481C98.8951 236.287 99.972 236.91 101.136 237.317C99.5189 241.068 104.022 245.075 107.934 245.568C105.714 248.063 109.689 251.736 113.691 252.558C111.279 253.545 113.114 257.547 117.118 258.474" stroke="#0B1B38" stroke-width="1.45" stroke-linecap="round" stroke-linejoin="round"/>
<path d="M122.822 231.527C115.205 231.499 107.633 230.363 100.344 228.156" stroke="#0B1B38" stroke-width="1.45" stroke-linecap="round" stroke-linejoin="round"/>
<path d="M127.541 228.759C126.033 227.991 125.924 227.251 125.266 226.264" stroke="#0B1B38" stroke-width="1.45" stroke-linecap="round" stroke-linejoin="round"/>
<path d="M98.0742 170.837C98.4306 170.097 98.8071 169.38 99.1707 168.699C102.935 161.641 111.177 158.693 117.838 157.24" stroke="#0B1B38" stroke-width="1.45" stroke-linecap="round" stroke-linejoin="round"/>
<path d="M92.8125 183.666C93.2453 182.24 94.0461 180.047 95.0329 177.635" stroke="#0B1B38" stroke-width="1.45" stroke-linecap="round" stroke-linejoin="round"/>
<path d="M174.194 223.715C169.397 214.504 165.011 206.719 162.133 200.631" stroke="#0B1B38" stroke-width="1.45" stroke-linecap="round" stroke-linejoin="round"/>
<path d="M155.172 158.008C158.105 158.576 160.946 159.544 163.615 160.886C185.591 173.82 206.788 216.314 208.708 223.357C212.488 237.228 212.683 254.717 195.715 258.527" stroke="#0B1B38" stroke-width="1.45" stroke-linecap="round" stroke-linejoin="round"/>
<path d="M107.751 248.688L91.5781 257.35L95.0321 238.545L97.6348 235.146" stroke="#0B1B38" stroke-width="1.45" stroke-linecap="round" stroke-linejoin="round"/>
<path d="M102.516 228.731L132.121 189.916L145.361 200.031L121.238 231.5" stroke="#0B1B38" stroke-width="1.45" stroke-linecap="round" stroke-linejoin="round"/>
<path d="M133.734 191.122L140.176 182.734L150.182 190.409L143.74 198.825" stroke="#0B1B38" stroke-width="1.45" stroke-linecap="round" stroke-linejoin="round"/>
<path d="M61.9424 195.371C60.6266 190.656 58.0571 181.362 57.2275 177.553C56.2176 172.945 55.0937 168.341 53.9092 163.737C53.438 161.868 53.0271 159.985 52.6771 158.09C51.1578 150.032 53.3176 148.474 56.8149 157.213C58.581 161.637 60.9925 165.776 63.9709 169.494" stroke="#0B1B38" stroke-width="1.45" stroke-linecap="round" stroke-linejoin="round"/>
<path d="M76.169 165.793C76.1416 165.519 75.9771 164.313 75.7578 162.619" stroke="#0B1B38" stroke-width="1.45" stroke-linecap="round" stroke-linejoin="round"/>
<path d="M75.7578 162.586C77.2998 159.205 78.3609 155.625 78.9102 151.95C80.2087 144.494 83.5732 144.192 83.3236 153.046C83.2962 154.006 83.1952 163.792 83.1591 166.697C83.136 168.479 83.654 172.831 85.1328 173.19C85.7373 173.315 86.3563 173.343 86.9694 173.272C91.6569 172.893 99.0005 169.025 100.785 171.929C102.098 174.067 95.4586 177.287 91.1361 179.933C88.0601 181.809 88.4771 187.636 89.3543 191.331" stroke="#0B1B38" stroke-width="1.45" stroke-linecap="round" stroke-linejoin="round"/>
<path d="M55.4453 190.903C58.4058 215.93 61.2394 233.632 66.843 245.919C70.4946 253.92 78.6577 258.471 89.1292 258.471" stroke="#0B1B38" stroke-width="1.45" stroke-linecap="round" stroke-linejoin="round"/>
<path d="M93.8516 186.188C94.8427 196.372 97.9143 216.348 98.6747 222.646" stroke="#0B1B38" stroke-width="1.45" stroke-linecap="round" stroke-linejoin="round"/>
<path d="M68.2461 162.476C68.8874 163.945 69.6677 165.349 70.5761 166.67" stroke="#0B1B38" stroke-width="1.45" stroke-linecap="round" stroke-linejoin="round"/>
<path d="M61.8558 166.641C61.6091 166.395 60.9497 159.924 60.2933 152.988C59.4954 144.573 62.3362 142.878 64.8163 152.44C65.6724 155.876 66.8187 159.233 68.2428 162.475C68.2428 161.954 68.2702 152.853 68.9815 145.698C69.7779 137.694 72.9173 137.666 73.7527 146.41C73.8335 147.259 75.0959 157.266 75.7538 162.584" stroke="#0B1B38" stroke-width="1.45" stroke-linecap="round" stroke-linejoin="round"/>
<path d="M78.3911 171.248C72.0588 174.498 68.3423 179.371 69.7562 186.434" stroke="#0B1B38" stroke-width="1.45" stroke-linecap="round" stroke-linejoin="round"/>
<path d="M89.4952 181.884C92.0921 182.679 93.7195 183.904 93.8537 185.859C94.4929 195.183 56.7751 200.286 55.4492 190.908C55.1765 188.988 56.7101 187.235 59.3143 185.755" stroke="#0B1B38" stroke-width="1.45" stroke-linecap="round" stroke-linejoin="round"/>
<path d="M23.2902 208.611C21.8647 206.966 21.4536 205.212 21.1261 200.661C20.4292 191.011 14.2384 189.264 10.2434 192.492C9.54172 193.052 8.97185 193.759 8.57423 194.564C8.17661 195.369 7.96099 196.251 7.94268 197.149C7.92437 198.046 8.1038 198.936 8.46826 199.757C8.83271 200.577 9.37325 201.307 10.0515 201.895" stroke="#0B1B38" stroke-width="1.45" stroke-linecap="round" stroke-linejoin="round"/>
<path d="M29.4863 212.887C29.6655 213.079 29.7998 213.308 29.8795 213.558C29.9591 213.808 29.9821 214.073 29.9467 214.333C29.9114 214.593 29.8185 214.842 29.675 215.062C29.5315 215.282 29.3409 215.467 29.117 215.604C28.8173 215.788 28.4695 215.877 28.1183 215.862C27.7672 215.847 27.4286 215.727 27.1462 215.517C26.864 215.308 26.6504 215.02 26.5325 214.689C26.4146 214.358 26.3977 214 26.4839 213.659C26.5705 213.319 26.7581 213.011 27.0192 212.778C27.1869 212.62 27.3844 212.499 27.6 212.419C27.8155 212.339 28.0449 212.304 28.2744 212.314C28.5042 212.325 28.7297 212.381 28.9377 212.48C29.1457 212.578 29.3322 212.716 29.4863 212.887Z" stroke="#0B1B38" stroke-width="1.45" stroke-linecap="round" stroke-linejoin="round"/>
<path d="M128.121 155.21C132.672 156.773 139.086 156.554 146.652 155.21" stroke="#0B1B38" stroke-width="1.45" stroke-linecap="round" stroke-linejoin="round"/>
<path d="M124.525 156.089L120.934 164.038L135.215 156.308L145.358 165.245L149.415 156.692" stroke="#0B1B38" stroke-width="1.45" stroke-linecap="round" stroke-linejoin="round"/>
<path d="M131.113 147.154L134.864 141.972C133.647 142.34 132.4 142.595 131.136 142.738" stroke="#0B1B38" stroke-width="1.45" stroke-linecap="round" stroke-linejoin="round"/>
<path d="M135.217 156.308C131.007 169.689 128.07 183.438 126.445 197.372" stroke="#0B1B38" stroke-width="1.45" stroke-linecap="round" stroke-linejoin="round"/>
<path d="M259.312 131.665C263.26 131.802 263.232 133.419 267.18 133.529C271.282 133.673 271.181 131.919 275.644 132.178" stroke="#0B1B38" stroke-width="1.45" stroke-linecap="round" stroke-linejoin="round"/>
<path d="M221.59 114.393L221.946 94.9582L259.748 110.777L258.98 151.347L242.971 144.657" stroke="#0B1B38" stroke-width="1.45" stroke-linecap="round" stroke-linejoin="round"/>
<path d="M225.43 120.534C227.627 127.898 231.947 134.45 237.847 139.373" stroke="#0B1B38" stroke-width="1.45" stroke-linecap="round" stroke-linejoin="round"/>
<path d="M232.885 128.822C229.519 123.787 221.15 114.728 216.164 117.986C212.463 120.424 214.025 129.333 219.645 137.86C225.264 146.386 232.83 151.347 236.525 148.907C241.507 145.674 236.548 134.308 232.885 128.822Z" stroke="#0B1B38" stroke-width="1.45" stroke-linecap="round" stroke-linejoin="round"/>
<path d="M216.164 117.986L226.773 110.994C230.473 108.555 238.045 113.513 243.653 122.043C249.261 130.572 250.835 139.477 247.134 141.917L236.526 148.907" stroke="#0B1B38" stroke-width="1.45" stroke-linecap="round" stroke-linejoin="round"/>
<path d="M132.201 50.0843C131.68 43.6699 131.165 43.6064 128.719 37.5843C126.5 32.1235 131.049 26.1534 137.19 26.126C143.33 26.0986 147.886 32.0153 145.688 37.5021C143.251 43.5818 142.645 44.1633 142.206 50.0843H132.201Z" stroke="#0B1B38" stroke-width="1.45" stroke-linecap="round" stroke-linejoin="round"/>
<path d="M137.202 50.0843V35.3682C137.21 34.8184 137.436 34.2943 137.828 33.9094C138.221 33.5245 138.75 33.31 139.299 33.3123H140.259C140.531 33.306 140.802 33.3536 141.055 33.4522C141.309 33.5509 141.54 33.6988 141.736 33.8874C141.933 34.0759 142.09 34.3014 142.198 34.5508C142.307 34.8003 142.365 35.0688 142.37 35.3408C142.358 35.8934 142.131 36.4195 141.737 36.8065C141.342 37.1935 140.812 37.4105 140.259 37.4112H134.119C133.847 37.4194 133.576 37.3735 133.322 37.2761C133.068 37.1786 132.836 37.0316 132.64 36.8436C132.443 36.6556 132.286 36.4303 132.178 36.181C132.069 35.9317 132.012 35.6632 132.008 35.3913C132.018 34.8395 132.246 34.314 132.641 33.9284C133.036 33.5429 133.567 33.3283 134.119 33.3311H136.257" stroke="#0B1B38" stroke-width="1.45" stroke-linecap="round" stroke-linejoin="round"/>
<path d="M142.177 58.6643H132.199V53.456H142.177V58.6643Z" stroke="#0B1B38" stroke-width="1.45" stroke-linecap="round" stroke-linejoin="round"/>
<path d="M180.281 223.496C165.661 224.025 149.617 224.784 128.582 224.784C125.264 235.146 125.264 251.538 130.419 258.419" stroke="#0B1B38" stroke-width="1.45" stroke-linecap="round" stroke-linejoin="round"/>
<path d="M93.7969 258.419C98.4858 258.419 106.763 255.897 110.547 251.319" stroke="#0B1B38" stroke-width="1.45" stroke-linecap="round" stroke-linejoin="round"/>
<path d="M103.856 224.483C100.265 208.09 101.362 193.561 105.145 182.295" stroke="#0B1B38" stroke-width="1.45" stroke-linecap="round" stroke-linejoin="round"/>
<path d="M106.789 229.8L135.353 192.355" stroke="#0B1B38" stroke-width="1.45" stroke-linecap="round" stroke-linejoin="round"/>
<path d="M116.879 231.281L142.427 197.783" stroke="#0B1B38" stroke-width="1.45" stroke-linecap="round" stroke-linejoin="round"/>
<path d="M95.0312 238.545L96.5663 243.178L101.418 243.644L102.953 248.276L107.751 248.688" stroke="#0B1B38" stroke-width="1.45" stroke-linecap="round" stroke-linejoin="round"/>
<path d="M93.3281 247.81C93.9586 251.675 96.1242 253.512 100.346 252.69" stroke="#0B1B38" stroke-width="1.45" stroke-linecap="round" stroke-linejoin="round"/>
<path d="M163.261 217.301L162.164 200.634" stroke="#0B1B38" stroke-width="1.45" stroke-linecap="round" stroke-linejoin="round"/>
<path d="M101.145 237.311C104.226 238.258 107.367 239 110.547 239.532" stroke="#0B1B38" stroke-width="1.45" stroke-linecap="round" stroke-linejoin="round"/>
<path d="M80.0334 165.848C76.5571 165.64 73.0706 166.018 69.7192 166.964C66.9853 167.858 64.3797 169.104 61.9688 170.672" stroke="#0B1B38" stroke-width="1.45" stroke-linecap="round" stroke-linejoin="round"/>
<path d="M113.258 125.052C113.258 125.858 113.416 126.655 113.725 127.399C114.033 128.143 114.484 128.819 115.054 129.388C115.623 129.958 116.299 130.409 117.043 130.717C117.787 131.026 118.584 131.184 119.389 131.184C120.195 131.184 120.992 131.026 121.736 130.717C122.48 130.409 123.156 129.958 123.725 129.388C124.295 128.819 124.746 128.143 125.054 127.399C125.363 126.655 125.521 125.858 125.521 125.052C125.521 124.247 125.363 123.45 125.054 122.706C124.746 121.962 124.295 121.286 123.725 120.717C123.156 120.147 122.48 119.696 121.736 119.388C120.992 119.079 120.195 118.921 119.389 118.921C118.584 118.921 117.787 119.079 117.043 119.388C116.299 119.696 115.623 120.147 115.054 120.717C114.484 121.286 114.033 121.962 113.725 122.706C113.416 123.45 113.258 124.247 113.258 125.052Z" stroke="#0B1B38" stroke-width="1.45"/>
<path d="M125.494 125.335C125.351 125.335 125.213 125.392 125.112 125.494C125.01 125.595 124.953 125.733 124.953 125.876C124.953 126.02 125.01 126.157 125.112 126.259C125.213 126.36 125.351 126.417 125.494 126.417V125.335ZM131.062 126.417C131.205 126.417 131.343 126.36 131.444 126.259C131.546 126.157 131.603 126.02 131.603 125.876C131.603 125.733 131.546 125.595 131.444 125.494C131.343 125.392 131.205 125.335 131.062 125.335V126.417ZM125.494 126.417H131.062V125.335H125.494V126.417Z" fill="#0B1B38"/>
<path d="M131.051 125.843C131.051 127.469 131.697 129.029 132.847 130.179C133.997 131.329 135.556 131.975 137.182 131.975C138.809 131.975 140.368 131.329 141.518 130.179C142.668 129.029 143.314 127.469 143.314 125.843C143.314 124.217 142.668 122.657 141.518 121.507C140.368 120.358 138.809 119.711 137.182 119.711C135.556 119.711 133.997 120.358 132.847 121.507C131.697 122.657 131.051 124.217 131.051 125.843Z" stroke="#0B1B38" stroke-width="1.45"/>
</svg>
