<svg width="290" height="290" viewBox="0 0 290 290" fill="none" xmlns="http://www.w3.org/2000/svg">
<path d="M264.797 175.305C263.888 175.97 262.849 176.433 261.748 176.664C260.646 176.896 259.509 176.891 258.41 176.648C256.791 176.523 255.165 176.785 253.668 177.416C250.176 179.029 247.294 181.719 245.444 185.091C244.723 186.356 243.661 188.265 242.287 190.672C240.666 188.746 238.895 186.532 237.959 185.228C232.833 187.133 228.29 190.334 224.774 194.521C226.926 198.041 229.777 202.336 232.785 206.351C231.817 207.845 230.8 209.384 229.735 210.968L208.434 200.469C199.498 196.055 192.42 204.221 194.151 212.092C194.151 212.092 202.786 217.52 209.804 221.878L200.593 226.155C189.842 221.559 171.005 213.51 162.929 210.118L159.221 217.168L131.809 231.253C133.727 240.546 139.292 248.688 145.816 255.321L163.903 246.894L171.116 249.428L174.758 241.833L186.577 236.325C186.577 236.325 217.417 252.47 223.8 255.08C245.114 263.779 256.715 262.212 262.861 256.735C273.487 247.266 267.796 226.104 267.796 226.104C272.25 219.056 268.004 192.439 264.797 175.305Z" fill="#CDE6FD"/>
<path d="M147.635 28.7288C140.014 28.6466 135.382 36.2946 139.411 42.1608L137.824 46.1904L141.864 44.5832C148.143 48.8047 157.102 44.7751 157.184 37.6104C157.229 32.7541 152.954 28.7836 147.635 28.7288Z" fill="#CDE6FD"/>
<path d="M260.28 167.493C259.091 168.691 257.71 169.683 256.195 170.426C256.263 171.42 256.273 172.418 256.223 173.414L260.28 167.493Z" fill="#0483F7"/>
<path d="M170.308 163.545C171.462 163.079 172.254 165.08 171.103 165.546C169.952 166.012 169.157 164.011 170.308 163.545Z" fill="#0483F7"/>
<path d="M121.547 77.7434L124.727 80.6216L124.014 77.6885L121.547 77.7434Z" fill="#0483F7"/>
<path d="M112.663 50.686C108.085 55.5106 107.613 62.3637 107.016 68.97C107.016 68.97 117.94 75.4451 118.142 81.6229C118.045 77.1951 116.108 73.5738 115.349 73.3834C109.318 71.7964 110.634 66.285 114.006 67.9832C115.311 68.6598 116.202 68.7796 115.899 67.3397C114.835 62.2901 117.774 52.9685 125.854 63.9262C122.376 58.6833 117.892 54.1831 112.663 50.686Z" fill="#0483F7"/>
<path d="M138.812 128.154C138.812 128.499 138.675 128.829 138.431 129.073C138.188 129.316 137.858 129.453 137.513 129.453C137.169 129.453 136.839 129.316 136.595 129.073C136.352 128.829 136.215 128.499 136.215 128.154C136.215 127.81 136.352 127.48 136.595 127.236C136.839 126.993 137.169 126.856 137.513 126.856C137.858 126.856 138.188 126.993 138.431 127.236C138.675 127.48 138.812 127.81 138.812 128.154Z" fill="#0483F7"/>
<path d="M127.437 119.876C127.437 120.22 127.3 120.551 127.056 120.794C126.813 121.038 126.483 121.174 126.138 121.174C125.794 121.174 125.464 121.038 125.22 120.794C124.977 120.551 124.84 120.22 124.84 119.876C124.84 119.532 124.977 119.201 125.22 118.958C125.464 118.714 125.794 118.578 126.138 118.578C126.483 118.578 126.813 118.714 127.056 118.958C127.3 119.201 127.437 119.532 127.437 119.876Z" fill="#0483F7"/>
<path d="M129.468 138.052C129.468 138.396 129.331 138.726 129.088 138.97C128.844 139.213 128.514 139.35 128.17 139.35C127.825 139.35 127.495 139.213 127.251 138.97C127.008 138.726 126.871 138.396 126.871 138.052C126.871 137.707 127.008 137.377 127.251 137.134C127.495 136.89 127.825 136.753 128.17 136.753C128.514 136.753 128.844 136.89 129.088 137.134C129.331 137.377 129.468 137.707 129.468 138.052Z" fill="#0483F7"/>
<path d="M59.4232 105.567C58.0526 104.443 56.2708 103.017 54.1875 101.044C58.005 99.6183 60.1908 101.647 59.4232 105.567Z" fill="#0483F7"/>
<path d="M44.1299 112.447C43.12 116.477 45.0346 118.889 48.9271 117.628C47.858 116.422 46.131 114.532 44.1299 112.447Z" fill="#0483F7"/>
<path d="M211.07 105.841C209.206 107.349 207.616 108.719 206.629 109.569C207.223 109.798 207.87 109.856 208.496 109.734C209.121 109.613 209.699 109.318 210.165 108.884C210.852 108.026 211.176 106.934 211.07 105.841Z" fill="#0483F7"/>
<path d="M58.3841 187.532L46.3501 180.568C46.0907 180.422 45.7974 180.346 45.4996 180.347C45.2017 180.35 44.9095 180.43 44.652 180.578C44.3943 180.728 44.1804 180.943 44.0311 181.2C43.8817 181.458 43.8024 181.751 43.8008 182.048V195.948C43.7998 196.247 43.8775 196.541 44.0261 196.801C44.1749 197.059 44.3891 197.275 44.6477 197.425C44.9061 197.575 45.1995 197.655 45.4985 197.655C45.7973 197.656 46.091 197.577 46.3501 197.428L58.3841 190.464C58.6403 190.314 58.853 190.1 59.0007 189.844C59.1486 189.587 59.2264 189.295 59.2264 188.998C59.2264 188.701 59.1486 188.41 59.0007 188.153C58.853 187.896 58.6403 187.682 58.3841 187.532Z" fill="#0483F7"/>
<path d="M214.664 86.8442L213.266 88.0778C213.013 88.319 212.866 88.65 212.856 88.9991C212.846 89.3481 212.973 89.6873 213.211 89.9431C213.449 90.1989 213.778 90.3508 214.126 90.366C214.475 90.3811 214.815 90.2582 215.075 90.0241L220.146 85.2543C218.395 86.019 216.552 86.5534 214.664 86.8442Z" fill="#0483F7"/>
<path d="M257.181 49.7785C257.14 49.7312 257.091 49.6928 257.037 49.6655C256.98 49.6384 256.92 49.623 256.858 49.6204C256.796 49.6178 256.735 49.628 256.677 49.6505C256.62 49.6731 256.566 49.7074 256.523 49.7511L219.188 82.842C219.685 82.9025 220.18 82.9939 220.666 83.1161C221.735 83.4451 221.572 83.8563 221.598 83.8837L257.153 50.4393C257.244 50.3547 257.298 50.238 257.302 50.1145C257.308 49.9909 257.265 49.8703 257.181 49.7785Z" fill="#0483F7"/>
<path d="M281.309 134.707C283.227 138.459 281.391 143.233 277.223 145.371C273.055 147.509 268.094 146.193 266.176 142.438C264.257 138.682 266.09 133.907 270.26 131.774C274.451 129.63 279.388 130.951 281.309 134.707Z" fill="#0483F7"/>
<path d="M267.79 144.631C255.849 136.499 250.684 143.961 248.625 149.405C250.41 145.573 253.773 144.885 258.498 152.471C258.942 152.195 259.324 151.832 259.622 151.402C261.897 148.633 265.269 153.046 261.431 155.678C261.372 158.949 261.614 159.527 263.35 168.205C262.747 157.076 285.144 156.418 267.79 144.631Z" fill="#0483F7"/>
<path d="M112.499 247.236C112.206 247.236 111.919 247.323 111.675 247.486C111.431 247.647 111.241 247.88 111.129 248.149C111.016 248.421 110.987 248.719 111.044 249.006C111.101 249.294 111.242 249.558 111.45 249.765C111.657 249.973 111.921 250.114 112.209 250.171C112.496 250.228 112.794 250.198 113.065 250.087C113.336 249.975 113.567 249.784 113.73 249.54C113.893 249.296 113.979 249.009 113.979 248.716C113.98 248.522 113.942 248.328 113.868 248.149C113.794 247.969 113.685 247.806 113.547 247.668C113.41 247.53 113.246 247.421 113.066 247.347C112.886 247.274 112.693 247.235 112.499 247.236Z" fill="#0483F7"/>
<path d="M104.168 256.01C104.168 256.302 104.081 256.588 103.918 256.832C103.756 257.076 103.524 257.265 103.254 257.377C102.983 257.49 102.686 257.519 102.399 257.461C102.111 257.405 101.848 257.263 101.641 257.056C101.434 256.849 101.293 256.585 101.235 256.298C101.178 256.011 101.208 255.714 101.32 255.443C101.432 255.173 101.622 254.942 101.865 254.779C102.108 254.616 102.395 254.529 102.687 254.529C102.882 254.528 103.075 254.567 103.255 254.64C103.435 254.714 103.598 254.824 103.736 254.961C103.873 255.099 103.982 255.262 104.056 255.443C104.131 255.621 104.168 255.815 104.168 256.01Z" fill="#0483F7"/>
<path d="M124.148 255.461C124.148 255.754 124.061 256.04 123.899 256.284C123.736 256.527 123.505 256.716 123.234 256.829C122.964 256.942 122.666 256.97 122.379 256.913C122.092 256.856 121.828 256.715 121.621 256.507C121.414 256.301 121.273 256.037 121.216 255.75C121.159 255.463 121.188 255.165 121.3 254.894C121.412 254.624 121.602 254.394 121.845 254.231C122.089 254.068 122.375 253.981 122.668 253.981C122.862 253.98 123.055 254.019 123.235 254.092C123.415 254.166 123.579 254.275 123.716 254.412C123.854 254.551 123.963 254.714 124.037 254.894C124.111 255.073 124.149 255.266 124.148 255.461Z" fill="#0483F7"/>
<path d="M129.546 242.905C129.546 243.198 129.46 243.484 129.297 243.727C129.134 243.971 128.903 244.16 128.633 244.273C128.362 244.385 128.065 244.414 127.777 244.356C127.49 244.3 127.227 244.159 127.019 243.951C126.812 243.745 126.671 243.481 126.614 243.194C126.557 242.906 126.587 242.609 126.699 242.338C126.811 242.068 127 241.837 127.244 241.674C127.487 241.511 127.773 241.425 128.066 241.425C128.261 241.423 128.454 241.462 128.634 241.536C128.814 241.609 128.977 241.719 129.115 241.856C129.252 241.995 129.361 242.158 129.435 242.338C129.51 242.517 129.547 242.71 129.546 242.905Z" fill="#0483F7"/>
<path d="M139.718 251.65C139.718 251.942 139.631 252.228 139.469 252.472C139.306 252.716 139.075 252.905 138.805 253.017C138.534 253.13 138.236 253.159 137.949 253.101C137.662 253.045 137.398 252.903 137.191 252.696C136.984 252.489 136.843 252.225 136.786 251.938C136.729 251.651 136.759 251.354 136.871 251.083C136.983 250.813 137.172 250.582 137.416 250.419C137.659 250.256 137.945 250.169 138.238 250.169C138.629 250.175 139.002 250.332 139.279 250.609C139.555 250.885 139.713 251.259 139.718 251.65Z" fill="#0483F7"/>
<path d="M209.761 221.907C209.761 221.907 220.672 229.144 224.263 229.884L205.375 223.936L209.761 221.907Z" fill="#0483F7"/>
<path d="M163.922 251.43C163.922 251.723 163.835 252.009 163.672 252.253C163.509 252.496 163.278 252.685 163.008 252.798C162.737 252.911 162.44 252.939 162.153 252.882C161.866 252.825 161.602 252.684 161.395 252.476C161.188 252.27 161.046 252.006 160.99 251.719C160.932 251.432 160.961 251.135 161.074 250.863C161.186 250.593 161.375 250.363 161.619 250.2C161.863 250.037 162.148 249.95 162.441 249.95C162.636 249.95 162.828 249.988 163.008 250.061C163.189 250.136 163.352 250.244 163.489 250.383C163.627 250.52 163.735 250.683 163.81 250.863C163.884 251.044 163.922 251.236 163.922 251.43Z" fill="#0483F7"/>
<path d="M154.441 256.525C154.441 256.817 154.355 257.103 154.192 257.347C154.028 257.591 153.798 257.78 153.528 257.892C153.257 258.005 152.959 258.034 152.672 257.976C152.385 257.92 152.121 257.778 151.915 257.571C151.707 257.364 151.566 257.1 151.509 256.813C151.452 256.526 151.481 256.229 151.593 255.958C151.706 255.688 151.895 255.457 152.138 255.294C152.382 255.131 152.668 255.044 152.961 255.044C153.352 255.047 153.727 255.204 154.004 255.481C154.281 255.758 154.438 256.134 154.441 256.525Z" fill="#0483F7"/>
<path d="M230.645 203.322L232.81 206.255L242.267 190.63L230.645 203.322Z" fill="#0483F7"/>
<path d="M196.769 92.9052C195.931 93.7867 195.316 94.7361 195.969 97.5624C197.312 96.3289 199.143 94.4922 201.04 92.5128C199.525 91.94 197.889 91.7308 196.769 92.9052Z" fill="#0483F7"/>
<path d="M7.94141 261.273H281.495" stroke="#0B1B38" stroke-width="1.45" stroke-linecap="round" stroke-linejoin="round"/>
<path d="M195.365 181.527L187.772 164.313C187.713 164.18 187.609 164.072 187.479 164.007C187.35 163.942 187.201 163.925 187.06 163.956L155.26 171.961C155.176 171.984 155.098 172.023 155.03 172.077C154.963 172.134 154.908 172.202 154.869 172.279C154.83 172.357 154.808 172.443 154.805 172.529C154.801 172.616 154.817 172.702 154.849 172.783L165.705 199.155C165.772 199.294 165.886 199.403 166.027 199.464C166.168 199.524 166.327 199.532 166.473 199.484L177.931 195.537" stroke="#0B1B38" stroke-width="1.45" stroke-linecap="round" stroke-linejoin="round"/>
<path d="M214.664 86.8442L213.266 88.0778C213.013 88.319 212.866 88.65 212.856 88.9991C212.846 89.3481 212.973 89.6873 213.211 89.9431C213.449 90.1989 213.778 90.3508 214.126 90.366C214.475 90.3811 214.815 90.2582 215.075 90.0241L220.146 85.2543C218.395 86.019 216.552 86.5534 214.664 86.8442Z" stroke="#0B1B38" stroke-width="1.45" stroke-linejoin="round"/>
<path d="M257.181 49.7785C257.14 49.7312 257.091 49.6928 257.037 49.6655C256.98 49.6384 256.92 49.623 256.858 49.6204C256.796 49.6178 256.735 49.628 256.677 49.6505C256.62 49.6731 256.566 49.7074 256.523 49.7511L219.188 82.842C219.685 82.9025 220.18 82.9939 220.666 83.1161C221.735 83.4451 221.572 83.8563 221.598 83.8837L257.153 50.4393C257.244 50.3547 257.298 50.238 257.302 50.1145C257.308 49.9909 257.265 49.8703 257.181 49.7785Z" stroke="#0B1B38" stroke-width="1.45" stroke-linejoin="round"/>
<path d="M256.191 170.426C257.726 169.716 259.113 168.72 260.276 167.493L256.219 173.408" stroke="#0B1B38" stroke-width="1.45" stroke-linecap="round" stroke-linejoin="round"/>
<path d="M245.91 223.525C253.147 227.17 267.785 226.101 267.785 226.101" stroke="#0B1B38" stroke-width="1.45" stroke-linecap="round" stroke-linejoin="round"/>
<path d="M188.1 185.42C184.781 184.543 177.135 181.334 172.913 179.691C170.94 178.923 172.283 183.009 184.097 187.915" stroke="#0B1B38" stroke-width="1.45" stroke-linecap="round" stroke-linejoin="round"/>
<path d="M186.567 188.271C183.086 187.86 178.398 186.844 174.067 186.023C172.038 185.639 172.176 188.573 183.415 191.836" stroke="#0B1B38" stroke-width="1.45" stroke-linecap="round" stroke-linejoin="round"/>
<path d="M199.639 195.352C198.594 192.292 197.931 189.115 197.665 185.893C196.789 178.958 195.143 180.959 194.78 183.152C194.568 184.523 194.549 185.916 194.725 187.291" stroke="#0B1B38" stroke-width="1.45" stroke-linecap="round" stroke-linejoin="round"/>
<path d="M144.102 253.57C137.989 257.517 133.137 260.116 129.386 260.861C127.036 261.255 124.628 261.115 122.341 260.45C112.601 257.907 91.541 264.835 91.7199 258.504C91.7704 256.721 98.4864 252.545 106.332 248.196C112.824 244.597 124.424 239.917 133.004 235.778C135.452 242.403 139.229 248.457 144.102 253.57Z" stroke="#0B1B38" stroke-width="1.45" stroke-linecap="round" stroke-linejoin="round"/>
<path d="M168.908 248.662C166.907 254.611 164.436 260.14 160.876 260.834C158.526 261.235 156.117 261.094 153.83 260.42C147.744 258.808 136.331 261.547 129.332 260.867" stroke="#0B1B38" stroke-width="1.45" stroke-linecap="round" stroke-linejoin="round"/>
<path d="M207.888 192.357L193.028 157.679C192.774 157.086 192.318 156.601 191.741 156.311C191.164 156.02 190.503 155.943 189.876 156.092L147.413 166.18C147.027 166.266 146.667 166.435 146.354 166.676C146.04 166.917 145.784 167.221 145.602 167.572C145.419 167.921 145.315 168.306 145.296 168.7C145.277 169.094 145.345 169.488 145.494 169.853L161.26 209.347" stroke="#0B1B38" stroke-width="1.45" stroke-linecap="round" stroke-linejoin="round"/>
<path d="M281.301 134.707C283.22 138.459 281.383 143.233 277.215 145.371C273.047 147.509 268.087 146.193 266.168 142.438C264.249 138.682 266.083 133.907 270.252 131.774C274.443 129.63 279.38 130.951 281.301 134.707Z" stroke="#0B1B38" stroke-width="1.45" stroke-linecap="round" stroke-linejoin="round"/>
<path d="M174.805 241.836L171.131 249.429L163.922 246.907L174.805 241.836Z" stroke="#0B1B38" stroke-width="1.45" stroke-linecap="round" stroke-linejoin="round"/>
<path d="M159.207 217.165L162.937 210.12" stroke="#0B1B38" stroke-width="1.45" stroke-linecap="round" stroke-linejoin="round"/>
<path d="M211.621 105.402V154.472C211.617 158.315 210.409 162.061 208.167 165.183C205.925 168.305 202.761 170.646 199.121 171.878" stroke="#0B1B38" stroke-width="1.45" stroke-linecap="round" stroke-linejoin="round"/>
<path d="M146.677 172.825H61.8623C56.9898 172.822 52.3181 170.883 48.8741 167.436C45.4301 163.989 43.4957 159.316 43.4961 154.444V111.817" stroke="#0B1B38" stroke-width="1.45" stroke-linecap="round" stroke-linejoin="round"/>
<path d="M43.5117 88.1326V79.6896C43.5147 74.8167 45.4526 70.1445 48.8994 66.6999C52.3461 63.2554 57.0195 61.3205 61.8924 61.3205H107.837" stroke="#0B1B38" stroke-width="1.45" stroke-linecap="round" stroke-linejoin="round"/>
<path d="M123.98 61.3205H193.253C198.123 61.3209 202.795 63.2562 206.24 66.7008C209.684 70.1454 211.619 74.817 211.619 79.6881V82.6213" stroke="#0B1B38" stroke-width="1.45" stroke-linecap="round" stroke-linejoin="round"/>
<path d="M44.9492 117.299C53.9976 126.06 63.6722 134.151 73.8966 141.506C76.6294 143.478 80.0272 144.3 83.3594 143.793C86.6914 143.286 89.6916 141.492 91.7145 138.796C96.4977 132.494 100.796 125.838 104.572 118.886" stroke="#0B1B38" stroke-width="1.45" stroke-linecap="round" stroke-linejoin="round"/>
<path d="M124.006 77.6885C123.187 77.7713 122.362 77.7898 121.539 77.7433L124.73 80.6288" stroke="#0B1B38" stroke-width="1.45" stroke-linecap="round" stroke-linejoin="round"/>
<path d="M152.543 116.669C157.927 121.609 163.713 126.093 169.842 130.073C172.023 131.518 174.58 132.291 177.195 132.296C179.811 132.301 182.372 131.537 184.558 130.101C194.316 123.722 199.034 119.919 209.788 109.227" stroke="#0B1B38" stroke-width="1.45" stroke-linecap="round" stroke-linejoin="round"/>
<path d="M196.413 93.2053C187.909 100.996 187.209 101.807 176.778 108.698C176.778 108.698 156.003 91.5649 146.897 88.5221C141.355 86.923 135.561 86.3846 129.82 86.9351C127.132 87.1429 125.591 83.51 124.721 80.6029C124.405 79.5468 124.008 77.6972 124.008 77.6972C127.846 77.286 133.976 75.0526 125.763 63.9348C117.611 52.9035 114.691 62.3723 115.808 67.4306C115.943 68.0466 115.835 68.5473 115.184 68.4852C114.601 68.3294 114.034 68.1203 113.489 67.8605C110.55 66.7481 109.618 71.3952 114.408 73.1597C115.163 73.4382 115.274 73.366 115.649 73.6257C118.278 75.4162 119.445 85.1317 115.707 87.9753C112.293 90.5723 104.713 90.3616 96.3737 96.7761C86.2586 104.567 79.7071 118.158 79.7071 118.158C69.4491 110.694 66.0688 108.659 58.9531 101.756" stroke="#0B1B38" stroke-width="1.45" stroke-linecap="round" stroke-linejoin="round"/>
<path d="M118.082 81.773C118.11 75.523 106.953 68.97 106.953 68.97C107.556 62.3637 108.022 55.5106 112.6 50.686C117.828 54.1837 122.309 58.6841 125.785 63.9262" stroke="#0B1B38" stroke-width="1.45" stroke-linecap="round" stroke-linejoin="round"/>
<path d="M150.816 103.895C153.283 114.64 152.57 127.771 151.117 141.095L112.904 143.918C111.287 132.98 107.504 125.306 102.707 114.75" stroke="#0B1B38" stroke-width="1.45" stroke-linecap="round" stroke-linejoin="round"/>
<path d="M103.668 172.845C103.668 160.839 112.902 143.925 112.902 143.925" stroke="#0B1B38" stroke-width="1.45" stroke-linecap="round" stroke-linejoin="round"/>
<path d="M160.329 163.106L151.117 141.067" stroke="#0B1B38" stroke-width="1.45" stroke-linecap="round" stroke-linejoin="round"/>
<path d="M37.6829 86.7619C35.5501 85.0735 33.1987 83.6811 30.6928 82.6227C29.9714 82.3817 28.7956 82.9026 32.1456 86.1863C34.3891 88.3836 38.4519 92.7652 40.3693 94.9308" stroke="#0B1B38" stroke-width="1.45" stroke-linecap="round" stroke-linejoin="round"/>
<path d="M221.504 87.1847C223.401 86.319 228.853 85.563 230.997 85.0898C237.49 83.6096 237.521 85.2543 232.34 87.9133C230.005 89.0854 227.741 90.3948 225.559 91.8347" stroke="#0B1B38" stroke-width="1.45" stroke-linecap="round" stroke-linejoin="round"/>
<path d="M226.036 86.0218C228.105 83.7911 230.323 81.703 232.673 79.7719C237.336 76.2674 237.009 74.6559 230.864 77.2225C229.874 77.6357 227.781 78.759 225.703 79.9342" stroke="#0B1B38" stroke-width="1.45" stroke-linecap="round" stroke-linejoin="round"/>
<path d="M215.289 82.6227C217.683 79.8854 220.228 77.2844 222.911 74.8319C228.037 70.5556 228.799 72.0041 225.378 76.7233C224.986 77.2948 224.608 77.8758 224.244 78.466" stroke="#0B1B38" stroke-width="1.45" stroke-linecap="round" stroke-linejoin="round"/>
<path d="M223.351 94.8212C223.351 94.5471 222.693 88.1052 220.309 85.1447" stroke="#0B1B38" stroke-width="1.45" stroke-linecap="round" stroke-linejoin="round"/>
<path d="M128.169 86.5167C125.158 89.5465 120.845 89.6778 115.762 87.9234" stroke="#0B1B38" stroke-width="1.45" stroke-linecap="round" stroke-linejoin="round"/>
<path d="M115.707 87.9667L116.363 95.9176L124.368 88.7356L132.975 93.8069L128.123 86.5701" stroke="#0B1B38" stroke-width="1.45" stroke-linecap="round" stroke-linejoin="round"/>
<path d="M109.508 90.4078L131.657 117.08L135.521 86.7475" stroke="#0B1B38" stroke-width="1.45" stroke-linecap="round" stroke-linejoin="round"/>
<path d="M54.1834 101.044C60.7407 98.5911 61.4563 106.036 55.4819 112.899C49.5074 119.762 42.3283 119.632 44.1245 112.447" stroke="#0B1B38" stroke-width="1.45" stroke-linecap="round" stroke-linejoin="round"/>
<path d="M48.9252 117.656C45.2583 113.438 41.3024 109.481 37.0859 105.814C30.8821 100.708 33.5483 101.472 36.3646 102.113C38.6443 102.776 40.9603 103.305 43.3013 103.7C38.6643 89.7932 37.7395 87.127 37.0499 84.6484C35.0776 77.5472 37.1465 77.4779 40.4504 83.3874C41.1617 84.6614 42.7992 87.202 43.5206 88.2928C46.5601 92.9472 50.1394 97.2258 54.184 101.039C56.2716 103.007 58.0491 104.439 59.4197 105.562" stroke="#0B1B38" stroke-width="1.45" stroke-linecap="round" stroke-linejoin="round"/>
<path d="M195.938 97.5898C199.423 94.3883 206.093 87.2164 208.931 84.028C209.332 83.5749 209.827 83.2132 210.379 82.9674C210.933 82.7215 211.532 82.597 212.138 82.6025C215.001 82.4738 217.867 82.6484 220.692 83.1233C222.473 83.6759 221.269 84.631 220.336 85.1519C217.896 86.2064 215.305 86.8723 212.659 87.1255C214.823 90.7988 210.928 95.733 209.507 97.4874" stroke="#0B1B38" stroke-width="1.45" stroke-linecap="round" stroke-linejoin="round"/>
<path d="M206.609 109.596C218.151 99.3356 224.439 96.5597 230.542 94.4374C236.052 92.52 236.243 90.9012 229.61 91.4769C227.388 91.5516 225.178 91.8415 223.012 92.3425" stroke="#0B1B38" stroke-width="1.45" stroke-linecap="round" stroke-linejoin="round"/>
<path d="M46.3501 180.568C46.0907 180.422 45.7974 180.346 45.4996 180.347C45.2017 180.35 44.9095 180.43 44.652 180.578C44.3943 180.728 44.1804 180.943 44.0311 181.2C43.8817 181.458 43.8024 181.751 43.8008 182.048V195.92C43.7998 196.219 43.8775 196.513 44.0261 196.773C44.1749 197.031 44.3891 197.248 44.6477 197.398C44.9061 197.548 45.1995 197.627 45.4985 197.627C45.7973 197.629 46.091 197.549 46.3501 197.401L58.3841 190.464C58.6403 190.314 58.853 190.1 59.0007 189.844C59.1486 189.587 59.2264 189.295 59.2264 188.998C59.2264 188.701 59.1486 188.41 59.0007 188.153C58.853 187.896 58.6403 187.682 58.3841 187.532L46.3501 180.568Z" stroke="#0B1B38" stroke-width="1.45" stroke-linecap="round" stroke-linejoin="round"/>
<path d="M73.4163 194.742C73.425 195.128 73.3563 195.512 73.2145 195.871C73.0727 196.231 72.8604 196.558 72.5904 196.834C72.3204 197.111 71.9978 197.33 71.6417 197.479C71.2858 197.629 70.9033 197.707 70.5171 197.707C70.1309 197.707 69.7484 197.629 69.3925 197.479C69.0364 197.33 68.7138 197.111 68.4439 196.834C68.1738 196.558 67.9616 196.231 67.8198 195.871C67.6779 195.512 67.6093 195.128 67.6179 194.742V183.255C67.6093 182.868 67.6779 182.484 67.8198 182.125C67.9616 181.766 68.1738 181.438 68.4439 181.163C68.7138 180.886 69.0364 180.666 69.3925 180.516C69.7484 180.368 70.1309 180.29 70.5171 180.29C70.9033 180.29 71.2858 180.368 71.6417 180.516C71.9978 180.666 72.3204 180.886 72.5904 181.163C72.8604 181.438 73.0727 181.766 73.2145 182.125C73.3563 182.484 73.425 182.868 73.4163 183.255V194.742Z" stroke="#0B1B38" stroke-width="1.45" stroke-linecap="round" stroke-linejoin="round"/>
<path d="M83.3968 194.742C83.4055 195.128 83.3368 195.512 83.195 195.871C83.0531 196.231 82.8409 196.558 82.5708 196.834C82.3007 197.111 81.9783 197.33 81.6222 197.479C81.2663 197.629 80.8838 197.707 80.4976 197.707C80.1114 197.707 79.7289 197.629 79.373 197.479C79.0169 197.33 78.6943 197.111 78.4242 196.834C78.1543 196.558 77.942 196.231 77.8002 195.871C77.6584 195.512 77.5897 195.128 77.5984 194.742V183.255C77.5897 182.868 77.6584 182.484 77.8002 182.125C77.942 181.766 78.1543 181.438 78.4242 181.163C78.6943 180.886 79.0169 180.666 79.373 180.516C79.7289 180.368 80.1114 180.29 80.4976 180.29C80.8838 180.29 81.2663 180.368 81.6222 180.516C81.9783 180.666 82.3007 180.886 82.5708 181.163C82.8409 181.438 83.0531 181.766 83.195 182.125C83.3368 182.484 83.4055 182.868 83.3968 183.255V194.742Z" stroke="#0B1B38" stroke-width="1.45" stroke-linecap="round" stroke-linejoin="round"/>
<path d="M147.635 28.7288C140.014 28.6466 135.382 36.2946 139.411 42.1608L137.824 46.1904L141.864 44.5832C148.143 48.8047 157.102 44.7751 157.184 37.6104C157.229 32.7541 152.954 28.7836 147.635 28.7288Z" stroke="#0B1B38" stroke-width="1.45" stroke-linecap="round" stroke-linejoin="round"/>
<path d="M233.535 111.954V129.361" stroke="#0B1B38" stroke-width="1.45" stroke-linecap="round" stroke-linejoin="round"/>
<path d="M242.243 120.658H224.836" stroke="#0B1B38" stroke-width="1.45" stroke-linecap="round" stroke-linejoin="round"/>
<path d="M124.371 88.7328C124.371 88.7328 130.187 109.298 131.635 117.077C133.146 125.441 133.78 133.939 133.527 142.435" stroke="#0B1B38" stroke-width="1.45" stroke-linecap="round" stroke-linejoin="round"/>
<path d="M263.373 168.205C262.77 157.076 285.159 156.427 267.814 144.631C256.103 136.665 250.913 143.673 248.77 149.082" stroke="#0B1B38" stroke-width="1.45" stroke-linecap="round" stroke-linejoin="round"/>
<path d="M264.75 175.332C263.586 169.129 262.456 163.697 262.091 161.763C261.621 159.78 261.409 157.742 261.461 155.704C265.298 153.072 261.927 148.659 259.651 151.427C259.34 151.853 258.943 152.209 258.487 152.475C250.408 139.49 246.101 150.858 247.378 161.012C248.147 167.127 251.007 172.457 256.198 170.424C256.358 172.558 256.218 174.703 255.783 176.798" stroke="#0B1B38" stroke-width="1.45" stroke-linecap="round" stroke-linejoin="round"/>
<path d="M224.256 229.857L205.367 223.936" stroke="#0B1B38" stroke-width="1.45" stroke-linecap="round" stroke-linejoin="round"/>
<path d="M199.664 195.372L207.888 192.357L228.119 199.731" stroke="#0B1B38" stroke-width="1.45" stroke-linecap="round" stroke-linejoin="round"/>
<path d="M242.247 190.656C240.515 188.6 239.04 186.708 237.97 185.228C232.844 187.131 228.301 190.334 224.785 194.521C227.06 198.196 229.665 202.088 232.817 206.255" stroke="#0B1B38" stroke-width="1.45" stroke-linecap="round" stroke-linejoin="round"/>
<path d="M227.002 184.927C225.142 181.073 223.734 177.016 222.808 172.838C222.153 170.726 221.729 168.549 221.547 166.345C221.038 160.286 222.589 160.507 224.535 165.934C229.308 179.255 233.8 182.902 235.933 186.082" stroke="#0B1B38" stroke-width="1.45" stroke-linecap="round" stroke-linejoin="round"/>
<path d="M221.79 168.15C220.322 166.432 218.623 164.927 216.74 163.678C216.195 163.372 215.129 163.611 217.371 166.775C217.86 167.465 219.815 170.418 220.47 171.49C221.886 173.615 223.159 175.833 224.28 178.127" stroke="#0B1B38" stroke-width="1.45" stroke-linecap="round" stroke-linejoin="round"/>
<path d="M225.627 181.774C226.175 184.598 220.775 181.445 218.334 180.376C216.142 179.417 213.32 179.195 218.334 183.474C221.387 186.255 224.002 189.481 226.093 193.042" stroke="#0B1B38" stroke-width="1.45" stroke-linecap="round" stroke-linejoin="round"/>
<path d="M188.237 199.536L161.258 209.347L198.538 225.301C199.173 225.57 199.856 225.705 200.545 225.694C201.235 225.686 201.915 225.533 202.541 225.246L209.754 221.901" stroke="#0B1B38" stroke-width="1.45" stroke-linecap="round" stroke-linejoin="round"/>
<path d="M260.741 197.236C260.741 197.236 248.103 219.521 247.09 221.33C241.683 230.997 232.565 234.399 220.075 228.088C217.175 226.622 213.904 224.566 194.105 212.12C192.374 204.225 199.443 196.083 208.388 200.497L229.689 210.996C231.745 207.953 233.619 205.053 235.316 202.361C240.366 194.319 243.73 188.023 245.404 185.117C247.249 181.743 250.133 179.05 253.627 177.442C258.795 175.322 260.199 178.511 264.757 175.331C267.991 192.465 272.24 219.082 267.799 226.127C267.799 226.127 281.976 278.832 223.803 255.103C217.416 252.498 186.58 236.348 186.58 236.348L145.816 255.346C139.292 248.709 133.697 240.569 131.781 231.276L168.427 212.417" stroke="#0B1B38" stroke-width="1.45" stroke-linecap="round" stroke-linejoin="round"/>
<path d="M258.222 201.622C258.222 201.622 261.3 221.06 258.229 226.132C258.229 226.132 263.187 260.613 235.963 248.415C216.556 239.722 197.976 230.937 189.827 227.088C188.477 226.445 187.004 226.104 185.508 226.09C184.013 226.075 182.533 226.388 181.171 227.006L138.367 246.359" stroke="#0B1B38" stroke-width="1.45" stroke-linecap="round" stroke-linejoin="round"/>
<path d="M136.945 162.394L135.438 172.838" stroke="#0B1B38" stroke-width="1.45" stroke-linecap="round" stroke-linejoin="round"/>
<path d="M19.3161 113.955C19.3161 114.562 19.1361 115.156 18.7988 115.661C18.4613 116.166 17.9819 116.559 17.4208 116.791C16.8598 117.024 16.2425 117.085 15.6469 116.966C15.0514 116.848 14.5044 116.555 14.075 116.126C13.6456 115.696 13.3532 115.15 13.2348 114.554C13.1163 113.958 13.1771 113.341 13.4095 112.78C13.6419 112.219 14.0354 111.74 14.5403 111.402C15.0451 111.065 15.6387 110.885 16.246 110.885C16.6493 110.884 17.0488 110.963 17.4215 111.117C17.7943 111.271 18.1329 111.498 18.4182 111.783C18.7034 112.068 18.9295 112.407 19.0836 112.779C19.2376 113.152 19.3167 113.552 19.3161 113.955Z" stroke="#0B1B38" stroke-width="1.45" stroke-linecap="round" stroke-linejoin="round"/>
<path d="M242.267 190.63L230.645 203.322" stroke="#0B1B38" stroke-width="1.45" stroke-linecap="round" stroke-linejoin="round"/>
<path d="M203.206 199.265C202.822 198.991 202.466 198.716 202.274 198.579C201.25 197.696 200.378 196.65 199.697 195.482L198.82 193.974C197.888 192.387 194.651 186.657 193.194 185.475C192.589 184.983 184.091 181.476 180.036 179.718C176.937 178.377 174.91 178.814 181.598 183.172" stroke="#0B1B38" stroke-width="1.45" stroke-linecap="round" stroke-linejoin="round"/>
<path d="M201.041 92.5185C200.351 92.1401 199.565 91.977 198.781 92.0503C197.998 92.1236 197.255 92.4299 196.648 92.9297C194.367 95.2886 196.457 100.914 200.019 105.023C202.433 107.806 207.726 111.55 210.169 108.884C210.853 108.025 211.178 106.934 211.074 105.841" stroke="#0B1B38" stroke-width="1.45" stroke-linecap="round" stroke-linejoin="round"/>
<path d="M184.783 191.506C182.124 192.11 179.685 192.749 175.549 193.344C173.603 193.622 174.972 195.806 186.021 196.551C187.638 196.659 187.912 197.675 188.241 199.539C189.076 204.27 189.798 205.913 193.943 208.34" stroke="#0B1B38" stroke-width="1.45" stroke-linecap="round" stroke-linejoin="round"/>
</svg>
