<svg width="287" height="330" viewBox="0 0 287 330" fill="none" xmlns="http://www.w3.org/2000/svg">
<g opacity="0.2">
<path d="M346.251 404.105L346.397 404.144M346.251 404.105C334.117 411.043 317.378 404.02 305.194 400.755C290.239 396.748 282.253 397.743 268.72 405.557C257.196 412.211 240.629 425.306 226.255 421.454C211.88 417.602 204.08 397.979 197.427 386.454C189.613 372.92 183.195 368.066 168.24 364.058C156.056 360.794 138.048 358.506 131.009 346.431C123.913 334.26 130.966 317.451 134.252 305.188C138.404 289.693 136.924 281.66 128.846 267.668C116.829 246.855 110.821 236.447 113.553 226.249C116.286 216.05 126.693 210.042 147.506 198.025C159.996 190.814 167.185 182.278 170.948 168.234C174.213 156.05 176.501 138.042 188.576 131.003C200.748 123.907 217.556 130.96 229.818 134.246C243.862 138.009 254.849 136.051 267.338 128.84C288.152 116.823 298.558 110.815 308.758 113.548C318.957 116.28 324.965 126.687 336.981 147.501C344.191 159.988 352.726 167.179 366.772 170.942C378.956 174.207 396.966 176.495 404.005 188.571C411.099 200.742 404.046 217.55 400.761 229.812C396.609 245.308 398.09 253.341 406.167 267.333C418.184 288.147 424.192 298.553 421.459 308.752C418.727 318.95 408.32 324.96 387.506 336.976C373.514 345.054 368.216 351.271 364.064 366.767C360.778 379.029 358.482 397.112 346.251 404.105Z" stroke="#0483F7" stroke-width="10"/>
<path d="M292.667 454.644L292.811 454.754M292.667 454.644C276.07 456.817 260.715 441.428 248.699 432.273C233.95 421.037 224.65 418.511 206.104 421.017C190.312 423.153 166.005 430.132 151.829 419.332C137.652 408.531 137.928 383.244 135.795 367.451C133.288 348.905 128.383 340.609 113.634 329.372C101.619 320.218 82.7058 309.5 80.3943 292.921C78.0638 276.211 93.5172 260.793 102.731 248.699C114.373 233.418 116.384 223.845 113.793 204.671C109.937 176.149 108.011 161.887 115.673 151.829C123.336 141.771 137.597 139.843 166.119 135.988C183.235 133.675 195.08 127.485 205.631 113.634C214.786 101.619 225.505 82.7055 242.083 80.394C258.794 78.0642 274.212 93.5174 286.305 102.73C300.155 113.282 313.217 116.106 330.333 113.793C358.856 109.938 373.116 108.01 383.175 115.673C393.234 123.336 395.161 137.597 399.015 166.119C401.328 183.231 407.517 195.077 421.369 205.631C433.385 214.786 452.3 225.505 454.611 242.084C456.94 258.794 441.486 274.212 432.273 286.305C420.631 301.586 418.621 311.16 421.211 330.334C425.067 358.856 426.995 373.117 419.331 383.175C411.669 393.233 397.407 395.162 368.885 399.015C349.71 401.607 341.015 406.088 329.372 421.369C320.159 433.463 309.397 452.455 292.667 454.644Z" stroke="#0483F7" stroke-width="10"/>
</g>
</svg>
