<svg width="25" height="24" viewBox="0 0 25 24" fill="none" xmlns="http://www.w3.org/2000/svg">
<path d="M8.11328 16H12.1133M8.11328 11H16.1133" stroke="#0483F7" stroke-width="1.5" stroke-linecap="round"/>
<path d="M11.6133 22H12.6133" stroke="#0483F7" stroke-width="1.5" stroke-linecap="round"/>
<path d="M9.10942 22C7.96018 21.975 7.1857 22 6.18637 21.775C5.13707 21.5 4.4875 20.85 4.26266 19.55C4.0378 18.7 4.11009 14.9238 4.11276 11.325C4.11482 8.53219 4.13334 5.99934 4.36259 5.475C4.68738 4.35 5.43688 3.55 7.76033 3.525M17.6287 3.525C18.4282 3.6 20.5179 3.525 20.9265 5.825C21.1486 7.075 21.1014 8.85 21.1014 10.975M9.78398 5.5C10.8333 5.525 14.206 5.5 15.3553 5.5C16.5045 5.5 17.1118 4.55409 17.1041 3.675C17.0962 2.77925 16.3046 2.08017 15.5302 2C14.5808 2 10.5585 2 9.75899 2C8.83461 2.05 8.21003 2.8 8.11009 3.55C8.01016 4.575 8.75966 5.45 9.78398 5.5Z" stroke="#0483F7" stroke-width="1.5" stroke-linecap="round"/>
<path d="M19.8776 14.3742C18.5035 15.7742 15.8553 18.2742 15.8553 18.4492C15.6417 18.746 15.4555 19.3492 15.3306 20.1992C15.1737 20.9871 14.9858 21.6742 15.2057 21.8742C15.4256 22.0742 16.2535 21.9056 17.1294 21.7242C17.829 21.6492 18.4785 21.3992 18.8033 21.1492C19.278 20.729 22.5009 17.4742 22.8756 17.0492C23.1504 16.6742 23.1754 15.9742 22.9356 15.5492C22.8007 15.2492 21.9512 14.4492 21.6764 14.2242C21.1767 13.9242 20.4772 13.8742 19.8776 14.3742Z" stroke="#0483F7" stroke-width="1.5" stroke-linecap="round"/>
</svg>
