<svg width="25" height="24" viewBox="0 0 25 24" fill="none" xmlns="http://www.w3.org/2000/svg">
<g clip-path="url(#clip0_176_33512)">
<path d="M24.5 17.9096C24.5 18.0411 24.4959 18.3247 24.4877 18.5466C24.4671 19.0849 24.426 19.7795 24.3603 20.0959C24.2616 20.5726 24.1178 21.0205 23.9247 21.3945C23.6986 21.8384 23.411 22.2329 23.0658 22.574C22.7247 22.9151 22.3301 23.2027 21.8863 23.4288C21.5123 23.6219 21.0603 23.7658 20.5795 23.8644C20.2671 23.926 19.5767 23.9712 19.0425 23.9877C18.8205 23.9959 18.537 24 18.4055 24H6.5863C6.45479 24 6.17123 23.9959 5.94932 23.9877C5.41096 23.9671 4.71644 23.926 4.4 23.8603C3.92329 23.7616 3.47534 23.6178 3.10137 23.4247C2.65753 23.1986 2.26301 22.911 1.92192 22.5658C1.58082 22.2247 1.29315 21.8301 1.06712 21.3863C0.873973 21.0123 0.730137 20.5603 0.631507 20.0795C0.569863 19.7671 0.524658 19.0767 0.508219 18.5425C0.50411 18.3247 0.5 18.0411 0.5 17.9096V6.09041C0.5 5.9589 0.50411 5.67534 0.512329 5.45342C0.532877 4.91507 0.573973 4.22055 0.639726 3.90411C0.738356 3.4274 0.882192 2.97945 1.07534 2.60548C1.30137 2.16164 1.58904 1.76712 1.93014 1.42603C2.27123 1.08493 2.66575 0.79726 3.10959 0.571233C3.48356 0.378082 3.93562 0.234247 4.41644 0.135616C4.72877 0.0739726 5.41918 0.0287671 5.95342 0.0123288C6.17534 0.00410959 6.4589 0 6.59041 0H18.4096C18.5411 0 18.8247 0.00410959 19.0466 0.0123288C19.5849 0.0328767 20.2795 0.0739726 20.5959 0.139726C21.0726 0.238356 21.5205 0.382192 21.8945 0.575342C22.3384 0.80137 22.7329 1.08904 23.074 1.43425C23.4151 1.77534 23.7027 2.16986 23.9288 2.6137C24.1219 2.98767 24.2658 3.43973 24.3644 3.92055C24.426 4.23288 24.4712 4.92329 24.4877 5.45753C24.4959 5.67945 24.5 5.96301 24.5 6.09452V17.9096Z" fill="url(#paint0_linear_176_33512)"/>
<path fill-rule="evenodd" clip-rule="evenodd" d="M18.8123 5.74537C17.1972 4.13031 15.0479 3.23853 12.7588 3.23853C8.04103 3.23853 4.20678 7.07688 4.20268 11.7906C4.20268 13.2988 4.5972 14.77 5.34514 16.0646L4.13281 20.4988L8.6698 19.3111C9.91911 19.9933 11.3246 20.3509 12.7588 20.3509H12.7629C17.4766 20.3509 21.315 16.5125 21.3191 11.7988C21.3191 9.50976 20.4273 7.36044 18.8123 5.74537ZM12.7629 18.9043C11.4849 18.9043 10.2314 18.5591 9.1424 17.9139L8.8835 17.7618L6.19172 18.4687L6.91089 15.8467L6.7424 15.5796C6.03144 14.4495 5.65336 13.1385 5.65336 11.7947C5.65336 7.87414 8.84651 4.6851 12.7671 4.6851C14.6657 4.6851 16.4534 5.42483 17.7931 6.76866C19.1369 8.1125 19.8766 9.90017 19.8725 11.7988C19.8684 15.7152 16.6794 18.9043 12.7629 18.9043ZM16.6629 13.5824C16.4493 13.4755 15.3972 12.9577 15.204 12.8878C15.0068 12.818 14.8671 12.781 14.7232 12.9947C14.5794 13.2084 14.1725 13.6892 14.0451 13.833C13.9219 13.9769 13.7945 13.9933 13.5808 13.8865C13.3671 13.7796 12.6766 13.5536 11.8629 12.8262C11.226 12.2591 10.7986 11.5604 10.6753 11.3467C10.552 11.133 10.6629 11.018 10.7698 10.9111C10.8643 10.8166 10.9835 10.6604 11.0903 10.5372C11.1972 10.4139 11.2342 10.3235 11.304 10.1796C11.3739 10.0358 11.341 9.9125 11.2876 9.80565C11.2342 9.6988 10.8068 8.64674 10.6301 8.21935C10.4575 7.80428 10.2808 7.8577 10.1493 7.85359C10.026 7.84537 9.88213 7.84537 9.73829 7.84537C9.59446 7.84537 9.36432 7.8988 9.16706 8.1125C8.9698 8.3262 8.41911 8.844 8.41911 9.89606C8.41911 10.9481 9.1835 11.9632 9.29035 12.107C9.3972 12.2509 10.7986 14.4084 12.9438 15.333C13.4534 15.555 13.852 15.6865 14.1643 15.7851C14.678 15.9495 15.1424 15.9248 15.5123 15.8714C15.9232 15.8098 16.778 15.3536 16.9547 14.8563C17.1314 14.3591 17.1314 13.9276 17.078 13.8413C17.0164 13.7426 16.8766 13.6892 16.6629 13.5824Z" fill="white"/>
</g>
<defs>
<linearGradient id="paint0_linear_176_33512" x1="12.5009" y1="24.0018" x2="12.5009" y2="0" gradientUnits="userSpaceOnUse">
<stop stop-color="#25CF43"/>
<stop offset="1" stop-color="#61FD7D"/>
</linearGradient>
<clipPath id="clip0_176_33512">
<rect width="24" height="24" fill="white" transform="translate(0.5)"/>
</clipPath>
</defs>
</svg>
